<svg width="87" height="32" viewBox="0 0 87 32" fill="none" xmlns="http://www.w3.org/2000/svg">
<rect width="87" height="32" fill="#48B9B1"/>
<path d="M16.376 9.92H12.92V8.688H11.608V9.92H8.136V10.864H16.376V9.92ZM10.152 13.2C10.152 12.56 10.968 12.176 12.264 12.176C13.544 12.176 14.36 12.56 14.36 13.2C14.36 13.84 13.544 14.24 12.264 14.24C10.968 14.24 10.152 13.84 10.152 13.2ZM16.808 15.584C15.576 15.744 14.232 15.856 12.92 15.92V15.072C14.568 14.928 15.608 14.256 15.608 13.2C15.608 12.016 14.28 11.312 12.264 11.312C10.216 11.312 8.904 12.016 8.904 13.2C8.904 14.272 9.944 14.944 11.608 15.072V15.952C10.232 16 8.904 16 7.784 16L7.928 16.976C10.44 16.976 13.832 16.96 16.888 16.416L16.808 15.584ZM11 20.864H18.968V17.936H9.672V18.864H17.672V19.984H9.72V23.024H19.512V22.08H11V20.864ZM18.968 12.496V8.832H17.656V17.312H18.968V13.6H21.08V12.496H18.968ZM29.0628 22.16C26.7908 22.16 25.4628 21.6 25.4628 20.592C25.4628 19.584 26.7908 19.024 29.0628 19.024C31.3028 19.024 32.6308 19.584 32.6308 20.592C32.6308 21.6 31.3028 22.16 29.0628 22.16ZM29.0628 18C25.9908 18 24.1348 18.928 24.1348 20.592C24.1348 22.256 25.9908 23.184 29.0628 23.184C32.1028 23.184 33.9588 22.256 33.9588 20.592C33.9588 18.928 32.1028 18 29.0628 18ZM29.7188 15.92V14.256H34.0388V13.2H25.5108V10.544H33.9428V9.488H24.1988V14.256H28.4068V15.92H22.5668V16.976H35.5588V15.92H29.7188ZM38.0535 10.368V11.456H43.3175C43.0135 14.848 41.0455 17.6 37.3815 19.44L38.1015 20.464C42.7415 18.144 44.6135 14.448 44.6135 10.368H38.0535ZM50.6295 14.656H48.3255V8.832H47.0135V23.184H48.3255V15.744H50.6295V14.656Z" fill="white"/>
<path fill-rule="evenodd" clip-rule="evenodd" d="M60.0001 11.1019C60.0085 10.2446 60.7887 9 62.0449 9C63.1496 9 63.682 9.59863 64.1178 10.0886C64.4196 10.428 64.6751 10.7153 65.0423 10.7153H74.7348C75.1215 10.7153 75.4351 11.03 75.4351 11.4182V22.6095C75.4351 22.9978 75.1215 23.3125 74.7348 23.3125H60.7003C60.3135 23.3125 60 22.9978 60 22.6095V11.1159V11.1019L60.0001 11.1019Z" fill="white"/>
<mask id="mask0" style="mask-type:alpha" maskUnits="userSpaceOnUse" x="60" y="10" width="21" height="14">
<path d="M60 11.0714L62.9943 10.6838H79.5014C79.8905 10.6838 80.2059 10.9994 80.2059 11.3886V22.6078C80.2059 22.997 79.8905 23.3125 79.5014 23.3125H60.7045C60.3154 23.3125 60 22.997 60 22.6078V11.0714Z" fill="white"/>
</mask>
<g mask="url(#mask0)">
<path d="M63.0195 13.6248C63.0965 13.3778 63.3245 13.2096 63.5824 13.2096H78.0722C78.4701 13.2096 78.7539 13.5969 78.6351 13.978L76.0277 22.3438C75.848 22.9202 75.316 23.3126 74.7141 23.3126H60L63.0195 13.6248Z" fill="#F5B051"/>
</g>
</svg>
