<?xml version="1.0" encoding="utf-8"?>
<!-- Generator: Adobe Illustrator 25.0.0, SVG Export Plug-In . SVG Version: 6.00 Build 0)  -->
<svg version="1.1" id="레이어_1" xmlns="http://www.w3.org/2000/svg" xmlns:xlink="http://www.w3.org/1999/xlink" x="0px"
	 y="0px" viewBox="0 0 69 32" style="enable-background:new 0 0 69 32;" xml:space="preserve">
<style type="text/css">
	.st0{fill:#2997CD;}
	.st1{fill:#FFFFFF;}
	.st2{fill:#F5B051;}
	.st3{fill-rule:evenodd;clip-rule:evenodd;fill:#FFFFFF;}
</style>
<rect class="st0" width="69" height="32"/>
<path class="st1" d="M12.7,18.5h-3v-3.8h3V18.5z M12.7,13.7h-3v-3.5H8.4v9.4h5.5v-9.4h-1.2V13.7z M18.9,8.8v5.7h-1.9V9.2h-1.2v13.3
	h1.2v-6.9h1.9v7.6h1.2V8.8H18.9z M29.1,22.2c-2.3,0-3.6-0.5-3.6-1.5c0-1,1.3-1.5,3.6-1.5c2.3,0,3.6,0.5,3.6,1.5
	C32.7,21.6,31.4,22.2,29.1,22.2z M29.1,18.2c-3.1,0-4.9,0.9-4.9,2.5c0,1.6,1.9,2.5,4.9,2.5c3,0,4.9-0.9,4.9-2.5
	C34,19.1,32.2,18.2,29.1,18.2z M25.6,11.8h7v1.6h-7V11.8z M29.8,16v-1.5h4.1V9.2h-1.3v1.6h-7V9.2h-1.3v5.3h4.1V16h-5.9v1.1h13V16
	H29.8z"/>
<path class="st1" d="M46.3,16.4c0.1,0.6-0.1,1-0.5,1.4c-0.7,0.7-0.9,1.9-0.5,2.9c0.5,1.2,1.6,1.8,2.7,1.6c0.5-0.1,1-0.1,1.4,0.3"/>
<path class="st1" d="M57.7,22.6c0.5-0.4,0.9-0.4,1.4-0.3c1.2,0.2,2.2-0.4,2.7-1.6c0.4-1,0.2-2.2-0.5-2.9c-0.4-0.4-0.6-0.8-0.5-1.4"
	/>
<path class="st2" d="M53.8,8.5c1.4-1.1,3.4-0.4,3.8,1.5c0.1,0.3,0.3,0.5,0.6,0.5c1.8,0.1,2.8,2.1,2,3.7c-0.1,0.3-0.1,0.6,0.1,0.8
	c1.3,1.3,0.9,3.5-0.7,4.2c-0.2,0.1-0.4,0.4-0.4,0.7c0.2,1.8-1.4,3.3-3.1,2.8c-0.3-0.1-0.5,0-0.7,0.3c-1,1.6-3.1,1.6-4.1,0
	c-0.1-0.2-0.4-0.4-0.7-0.3c-1.7,0.5-3.4-0.9-3.1-2.8c0-0.3-0.1-0.6-0.4-0.7c-1.6-0.7-2-3-0.7-4.2c0.2-0.2,0.2-0.5,0.1-0.8
	c-0.8-1.6,0.3-3.6,2-3.7c0.3,0,0.5-0.2,0.6-0.5c0.4-1.8,2.4-2.6,3.8-1.5C53.3,8.7,53.6,8.7,53.8,8.5z"/>
<path class="st1" d="M50.3,15.3c-0.5,0-0.8-0.4-0.8-0.9c0-0.4,0.4-0.8,0.8-0.8c0.4,0,0.8,0.4,0.8,0.8C51.1,14.9,50.7,15.3,50.3,15.3
	z"/>
<path class="st1" d="M53.3,14.3c-0.5,0-0.8-0.4-0.8-0.9c0-0.4,0.4-0.8,0.8-0.8c0.4,0,0.8,0.4,0.8,0.8C54.1,14,53.7,14.3,53.3,14.3z"
	/>
<path class="st1" d="M56.3,15.3c-0.5,0-0.8-0.4-0.8-0.9c0-0.4,0.4-0.8,0.8-0.8c0.4,0,0.8,0.4,0.8,0.8C57,14.9,56.7,15.3,56.3,15.3z"
	/>
<path class="st3" d="M51,15.9c0.2-0.1,0.4-0.1,0.5,0.1l-0.3,0.2c0.3-0.2,0.3-0.2,0.3-0.2l0,0l0,0l0,0c0,0,0,0,0,0c0,0,0,0,0,0
	c0,0,0.1,0.1,0.1,0.2c0.1,0.2,0.2,0.4,0.3,0.7c0.2,0.5,0.5,1.3,0.5,2.1c0,0.2-0.1,0.4-0.3,0.4c-0.2,0-0.4-0.1-0.4-0.4
	c-0.1-0.7-0.3-1.4-0.5-1.9c-0.1-0.2-0.2-0.4-0.3-0.6c0-0.1-0.1-0.1-0.1-0.2c0,0,0,0,0,0l0,0l0,0C50.8,16.3,50.8,16,51,15.9z
	 M50.9,16.5C50.9,16.5,50.9,16.5,50.9,16.5z M55.6,15.9c0.2,0.1,0.2,0.4,0.1,0.6c0,0,0,0,0,0l-0.3-0.2L55.1,16
	C55.2,15.8,55.4,15.8,55.6,15.9z M55.6,16.5L55.6,16.5L55.6,16.5C55.6,16.5,55.6,16.5,55.6,16.5c0,0.1-0.1,0.1-0.1,0.2
	c-0.1,0.1-0.2,0.3-0.3,0.6c-0.2,0.5-0.4,1.2-0.5,1.9c0,0.2-0.2,0.4-0.4,0.4c-0.2,0-0.3-0.2-0.3-0.4c0.1-0.8,0.3-1.6,0.5-2.1
	c0.1-0.3,0.2-0.5,0.3-0.7c0-0.1,0.1-0.1,0.1-0.2c0,0,0,0,0,0c0,0,0,0,0,0l0,0l0,0l0,0c0,0,0,0,0.3,0.2"/>
</svg>
