<svg width="195" height="50" viewBox="0 0 195 50" fill="none" xmlns="http://www.w3.org/2000/svg">
<path d="M4.89663 16C7.8902 16 9.4939 14.4874 9.4939 11.6964C9.4939 8.96937 7.82605 8.03196 5.81608 7.11585L3.8275 6.19973C2.73698 5.75233 2.15965 5.1984 2.15965 3.74967C2.15965 2.32224 3.03634 1.44874 4.57589 1.44874C6.20097 1.44874 7.14181 2.49268 7.14181 4.36751V4.53795H9.08763V4.36751C9.08763 1.36352 7.24872 0 4.57589 0C2.00997 0 0.235209 1.34221 0.235209 3.85619C0.235209 6.34887 1.56093 7.3502 3.3357 8.13848L5.21737 9.01198C6.71416 9.69374 7.5267 10.3329 7.5267 11.9308C7.5267 13.5712 6.67139 14.5513 4.87525 14.5513C2.99357 14.5513 1.98859 13.4221 1.98859 10.972V10.8016H0V10.972C0 14.3169 1.71061 16 4.89663 16Z" fill="black"/>
<path d="M15.1563 16C17.6581 16 19.0693 14.7643 19.0693 12.1438V12.0373H17.2518V12.1438C17.2518 13.8482 16.4606 14.6365 15.1563 14.6365C13.3388 14.6365 12.9539 13.0599 12.9539 10.482V10.1838H19.2404V9.31025C19.2404 5.6245 18.043 4.00533 15.1349 4.00533C12.2269 4.00533 10.9653 5.6032 10.9653 9.16112V10.8442C10.9653 14.3595 12.2483 16 15.1563 16ZM12.9539 8.82024C12.9539 6.68975 13.3388 5.34754 15.1563 5.34754C16.8883 5.34754 17.2518 6.58322 17.2518 8.79893V8.94807H12.9539V8.82024Z" fill="black"/>
<path d="M25.0109 14.6365C23.1933 14.6365 22.8726 13.0386 22.8726 10.3755V9.62983C22.8726 6.98802 23.1933 5.34754 25.0109 5.34754C26.8284 5.34754 27.1277 6.98802 27.1277 9.62983V10.3755C27.1277 13.0386 26.8284 14.6365 25.0109 14.6365ZM25.0109 16C27.8548 16 29.1163 14.4021 29.1163 10.8229V9.18242C29.1163 5.6032 27.8548 4.00533 25.0109 4.00533C22.1242 4.00533 20.884 5.6032 20.884 9.18242V10.8229C20.884 14.4021 22.1242 16 25.0109 16Z" fill="black"/>
<path d="M38.7158 4.26098H36.7914V10.5246C36.7914 12.996 36.0644 14.5513 34.5462 14.5513C33.1777 14.5513 32.9639 13.3369 32.9639 11.2916V4.26098H31.0394V11.9308C31.0394 14.743 31.7451 15.9787 33.8619 15.9787C35.3374 15.9787 36.3637 15.0839 36.7914 13.8695V15.723H38.7158V4.26098Z" fill="black"/>
<path d="M41.2754 15.723H43.1998V0.276964H41.2754V15.723Z" fill="black"/>
<path d="M50.156 15.723H51.9949V2.87616L57.1054 15.723H59.5216V0.276964H57.6827V13.1025L52.5723 0.276964H50.156V15.723Z" fill="black"/>
<path d="M66.0654 16C68.5672 16 69.9784 14.7643 69.9784 12.1438V12.0373H68.1609V12.1438C68.1609 13.8482 67.3698 14.6365 66.0654 14.6365C64.2479 14.6365 63.863 13.0599 63.863 10.482V10.1838H70.1495V9.31025C70.1495 5.6245 68.9521 4.00533 66.044 4.00533C63.136 4.00533 61.8744 5.6032 61.8744 9.16112V10.8442C61.8744 14.3595 63.1574 16 66.0654 16ZM63.863 8.82024C63.863 6.68975 64.2479 5.34754 66.0654 5.34754C67.7974 5.34754 68.1609 6.58322 68.1609 8.79893V8.94807H63.863V8.82024Z" fill="black"/>
<path d="M76.3074 15.723V14.4234H75.6873C74.554 14.4234 74.3188 14.1678 74.3188 12.719V5.56059H76.3074V4.26098H74.3188V1.36352H72.3943V4.26098H70.8976V5.56059H72.3943V12.9534C72.3943 15.02 72.8861 15.723 74.9175 15.723H76.3074Z" fill="black"/>
<path d="M78.8862 15.723H80.9603L82.7136 6.19973L84.467 15.723H86.5198L88.4228 4.26098H86.7336L85.3651 13.4434L83.6117 4.26098H81.7942L80.0622 13.4434L78.6937 4.26098H77.0045L78.8862 15.723Z" fill="black"/>
<path d="M93.8154 14.6365C91.9979 14.6365 91.6772 13.0386 91.6772 10.3755V9.62983C91.6772 6.98802 91.9979 5.34754 93.8154 5.34754C95.6329 5.34754 95.9323 6.98802 95.9323 9.62983V10.3755C95.9323 13.0386 95.6329 14.6365 93.8154 14.6365ZM93.8154 16C96.6593 16 97.9209 14.4021 97.9209 10.8229V9.18242C97.9209 5.6032 96.6593 4.00533 93.8154 4.00533C90.9288 4.00533 89.6886 5.6032 89.6886 9.18242V10.8229C89.6886 14.4021 90.9288 16 93.8154 16Z" fill="black"/>
<path d="M100.015 15.723H101.939V9.60852C101.939 6.98802 102.667 6.15712 104.313 6.15712H104.997V4.26098H104.57C103.009 4.26098 102.282 5.41145 101.939 6.66844V4.26098H100.015V15.723Z" fill="black"/>
<path d="M111.991 15.723H114.086L110.622 8.84154L113.937 4.26098H111.991L108.12 9.77896V0.276964H106.196V15.723H108.12V12.2929L109.403 10.5246L111.991 15.723Z" fill="black"/>
<path d="M123.363 14.6365C121.545 14.6365 121.224 13.0386 121.224 10.3755V9.62983C121.224 6.98802 121.545 5.34754 123.363 5.34754C125.18 5.34754 125.48 6.98802 125.48 9.62983V10.3755C125.48 13.0386 125.18 14.6365 123.363 14.6365ZM123.363 16C126.207 16 127.468 14.4021 127.468 10.8229V9.18242C127.468 5.6032 126.207 4.00533 123.363 4.00533C120.476 4.00533 119.236 5.6032 119.236 9.18242V10.8229C119.236 14.4021 120.476 16 123.363 16Z" fill="black"/>
<path d="M129.926 15.723H131.85V5.56059H133.903V4.26098H131.85V3.08921C131.85 1.81092 132.021 1.53396 133.219 1.53396H133.903V0.276964H132.855C130.696 0.276964 129.926 0.809587 129.926 3.0253V4.26098H128.408V5.56059H129.926V15.723Z" fill="black"/>
<path d="M144.059 16C147.16 16 148.742 14.253 148.742 10.9081V10.8016H146.775V10.8868C146.775 13.5286 145.856 14.53 144.038 14.53C141.622 14.53 141.109 12.3142 141.109 8.41545V7.58455C141.109 3.68575 141.622 1.47004 144.038 1.47004C145.856 1.47004 146.775 2.47137 146.775 5.11318V5.1984H148.742V5.09188C148.742 1.747 147.16 0 144.059 0C140.467 0 139.013 2.19441 139.013 7.05193V8.94807C139.013 13.8056 140.467 16 144.059 16Z" fill="black"/>
<path d="M158.2 4.26098H156.275V10.5246C156.275 12.996 155.548 14.5513 154.03 14.5513C152.662 14.5513 152.448 13.3369 152.448 11.2916V4.26098H150.523V11.9308C150.523 14.743 151.229 15.9787 153.346 15.9787C154.821 15.9787 155.848 15.0839 156.275 13.8695V15.723H158.2V4.26098Z" fill="black"/>
<path d="M160.759 15.723H162.684V0.276964H160.759V15.723Z" fill="black"/>
<path d="M169.397 15.723V14.4234H168.777C167.644 14.4234 167.409 14.1678 167.409 12.719V5.56059H169.397V4.26098H167.409V1.36352H165.484V4.26098H163.987V5.56059H165.484V12.9534C165.484 15.02 165.976 15.723 168.007 15.723H169.397Z" fill="black"/>
<path d="M178.455 4.26098H176.53V10.5246C176.53 12.996 175.803 14.5513 174.285 14.5513C172.917 14.5513 172.703 13.3369 172.703 11.2916V4.26098H170.778V11.9308C170.778 14.743 171.484 15.9787 173.601 15.9787C175.076 15.9787 176.103 15.0839 176.53 13.8695V15.723H178.455V4.26098Z" fill="black"/>
<path d="M181.014 15.723H182.939V9.60852C182.939 6.98802 183.666 6.15712 185.312 6.15712H185.997V4.26098H185.569C184.008 4.26098 183.281 5.41145 182.939 6.66844V4.26098H181.014V15.723Z" fill="black"/>
<path d="M190.916 16C193.418 16 194.829 14.7643 194.829 12.1438V12.0373H193.011V12.1438C193.011 13.8482 192.22 14.6365 190.916 14.6365C189.098 14.6365 188.713 13.0599 188.713 10.482V10.1838H195V9.31025C195 5.6245 193.803 4.00533 190.895 4.00533C187.986 4.00533 186.725 5.6032 186.725 9.16112V10.8442C186.725 14.3595 188.008 16 190.916 16ZM188.713 8.82024C188.713 6.68975 189.098 5.34754 190.916 5.34754C192.648 5.34754 193.011 6.58322 193.011 8.79893V8.94807H188.713V8.82024Z" fill="black"/>
<path d="M6.71176 32.6485H4.95901V36.0512C4.95901 39.5595 2.77875 43.2158 0 44.5895L1.06875 45.9633C3.22763 44.822 5.00176 42.4338 5.83538 39.6229C6.71176 42.2859 8.46451 44.5473 10.6448 45.6251L11.6708 44.2514C8.89201 42.941 6.71176 39.4961 6.71176 36.0512V32.6485ZM14.0434 31.0211V37.4461H9.59739V38.8621H14.0434V50H15.7961V31.0211H14.0434Z" fill="black"/>
<path d="M28.3202 32.5428C31.4624 32.5428 33.2579 33.2614 33.2579 34.5295C33.2579 35.7976 31.4624 36.5161 28.3202 36.5161C25.1781 36.5161 23.3826 35.7976 23.3826 34.5295C23.3826 33.2614 25.1781 32.5428 28.3202 32.5428ZM28.3202 37.8053C32.5525 37.8053 35.0534 36.6641 35.0534 34.5295C35.0534 32.3949 32.5525 31.2325 28.3202 31.2325C24.1094 31.2325 21.5871 32.3949 21.5871 34.5295C21.5871 36.6641 24.1094 37.8053 28.3202 37.8053ZM36.9771 40.4472V39.0523H19.6634V40.4472H27.4439V42.2225H21.7581V43.5328H33.0441V45.2236H21.8009V49.7675H35.3526V48.4149H23.5109V46.4917H34.7755V42.2225H29.1966V40.4472H36.9771Z" fill="black"/>
<path d="M52.7075 37.1713H43.2597V33.3037H52.7075V37.1713ZM54.4389 31.9088H41.5497V38.5662H54.4389V31.9088ZM43.2597 44.1457H41.507V49.5562H54.7595V48.1402H43.2597V44.1457ZM39.284 40.7219V42.1168H47.2568V45.9422H49.0096V42.1168H56.7046V40.7219H39.284Z" fill="black"/>
<path d="M70.5539 33.3248H65.7232V31.0423H63.9704V33.3248H59.0969V34.6986H70.5539V33.3248ZM61.9826 39.327C61.9826 38.0167 63.1368 37.1502 64.8468 37.1502C66.5568 37.1502 67.7111 38.0167 67.7111 39.327C67.7111 40.6374 66.5568 41.4828 64.8468 41.4828C63.1368 41.4828 61.9826 40.6374 61.9826 39.327ZM65.7232 42.7931C67.9248 42.5184 69.3783 41.208 69.3783 39.327C69.3783 37.1924 67.5187 35.8187 64.8468 35.8187C62.1749 35.8187 60.3153 37.1924 60.3153 39.327C60.3153 41.208 61.7688 42.5184 63.9704 42.7931V44.8643C62.1108 44.9277 60.3153 44.9277 58.7763 44.9277L59.0114 46.386C62.3673 46.386 66.8774 46.3437 70.9814 45.6251L70.8746 44.3359C69.2287 44.5895 67.4546 44.7164 65.7232 44.8009V42.7931ZM76.7527 39.0734H73.7602V31.0211H72.0075V49.9789H73.7602V40.5317H76.7527V39.0734Z" fill="black"/>
<path d="M81.3253 33.0501H79.5939V45.1813H80.8123C83.1208 45.1813 85.2583 45.0545 87.7592 44.5473L87.524 43.089C85.301 43.5328 83.3773 43.6596 81.3253 43.6808V33.0501ZM89.1913 37.3826H84.9163V38.8198H89.1913V49.0278H90.8586V31.4861H89.1913V37.3826ZM93.2739 31V49.9789H94.9412V31H93.2739Z" fill="black"/>
<path d="M113.707 41.2503H102.314V38.2492H113.087V36.8754H102.314V34.0645H113.514V32.6696H100.54V42.6452H113.707V41.2503ZM98.2954 46.1112V47.5273H115.695V46.1112H98.2954Z" fill="black"/>
<path d="M124.158 33.3037C126.017 33.3037 127.321 34.2759 127.321 35.6919C127.321 37.1502 126.017 38.1012 124.158 38.1012C122.298 38.1012 120.994 37.1502 120.994 35.6919C120.994 34.2759 122.298 33.3037 124.158 33.3037ZM124.158 39.4327C127 39.4327 128.967 37.9321 128.967 35.6919C128.967 33.4727 127 31.9722 124.158 31.9722C121.315 31.9722 119.348 33.4727 119.348 35.6919C119.348 37.9321 121.315 39.4327 124.158 39.4327ZM130.527 40.3838C126.359 40.9755 121.528 40.9967 117.916 40.9967L118.13 42.455C119.647 42.455 121.379 42.4338 123.196 42.3704V49.4082H124.948V42.2859C126.829 42.1802 128.753 41.99 130.634 41.673L130.527 40.3838ZM131.981 31.0423V43.9766H127.642V45.3293H131.981V50H133.734V31.0423H131.981Z" fill="black"/>
<path d="M139.225 38.7141L139.482 40.1513L151.046 39.5172C150.939 40.9755 150.725 42.5395 150.297 44.3571L152.029 44.5261C152.863 40.6374 152.862 38.0801 152.862 35.2692V32.9444H139.717V34.3604H151.152V35.2692C151.152 36.2414 151.152 37.2136 151.11 38.2069L139.225 38.7141ZM137.665 45.921V47.337H155V45.921H137.665Z" fill="black"/>
</svg>
