<?xml version="1.0" encoding="utf-8"?>
<!-- Generator: Adobe Illustrator 25.0.0, SVG Export Plug-In . SVG Version: 6.00 Build 0)  -->
<svg version="1.1" id="레이어_1" xmlns="http://www.w3.org/2000/svg" xmlns:xlink="http://www.w3.org/1999/xlink" x="0px"
	 y="0px" viewBox="0 0 128.5 128.4" style="enable-background:new 0 0 128.5 128.4;" xml:space="preserve">
<style type="text/css">
	.st0{fill:#EDEDED;}
	.st1{clip-path:url(#SVGID_2_);}
	.st2{fill:#E69E6C;}
	.st3{fill:#F9F9F9;}
	.st4{fill:#00A0DF;}
	.st5{fill:#3F3B3A;}
	.st6{clip-path:url(#SVGID_2_);fill:#E69E6C;}
</style>
<g>
	<circle class="st0" cx="64.2" cy="64.2" r="64.2"/>
	<g>
		<defs>
			<circle id="SVGID_1_" cx="64.3" cy="64.2" r="64.2"/>
		</defs>
		<clipPath id="SVGID_2_">
			<use xlink:href="#SVGID_1_"  style="overflow:visible;"/>
		</clipPath>
		<g class="st1">
			<path class="st2" d="M134.4,58.1c1.7-4.5,0.6-9.4-2.9-12.3c-1.9-1.7-2.9-3.3-2.7-5.8c2-17.5-9.4-34.5-27.2-41
				C84-7.5,64.3-1.9,54.4,12.7c-1.4,2-3.2,2.7-5.8,2.7c-4.5,0-8.5,3-10.1,7.5c-2,5.4-0.3,10.4,4.1,13.3c2,1.4,3.1,2.8,3.4,5.4
				C47.7,57,57.3,71,73.4,77c15.5,5.7,32.2,1.3,43.4-9.3c2-1.8,3.3-2,5.9-2C127.8,65.6,132.4,63.5,134.4,58.1z"/>
			<g>
				<path class="st3" d="M84.7,52.7c-2.6-0.8-5.2,0.6-5.9,2.9c-0.8,2.6,0.6,5.2,3.2,6c2.3,0.7,4.9-0.7,5.7-3.3
					C88.3,56,86.9,53.4,84.7,52.7z"/>
				<path class="st3" d="M70.8,41.5c-2.6-0.8-5.2,0.6-5.9,2.9c-0.8,2.6,0.6,5.2,3.2,6c2.3,0.7,4.9-0.7,5.7-3.3
					C74.5,44.8,73.1,42.2,70.8,41.5z"/>
				<path class="st3" d="M102.4,51.3c-2.6-0.8-5.2,0.6-5.9,2.9c-0.8,2.6,0.6,5.2,3.2,6c2.3,0.7,4.9-0.7,5.7-3.3
					C106.1,54.6,104.7,52,102.4,51.3z"/>
			</g>
		</g>
		<g class="st1">
			
				<rect x="-2.6" y="34.9" transform="matrix(-0.4693 0.883 -0.883 -0.4693 72.2373 94.8252)" class="st2" width="20.5" height="68.5"/>
			<polygon class="st4" points="33.1,94.3 42.7,76.1 60.3,95.2 58.7,98.2 			"/>
			<polygon class="st5" points="50.2,96.9 54.4,88.8 60.3,95.2 58.7,98.2 			"/>
		</g>
		<path class="st6" d="M82.7,134.2c-13.3,5.5-18.4,3.9-20.8-1.9c-1.8-4.2,0.6-13.2,4.5-14.9c4-1.7,4.2,3.2,4.2,3.2
			s0.4-12.6,4.8-14.5c4.5-1.9,5.3,3.2,5.3,3.2s1.1-12.9,9.2-16.3c6.7-2.8,4.2,14.1,4.2,14.1s2.2-4.2,5.5-5.6
			c3.6-1.5,7.1,3.1,4.7,10.4C100.5,123.3,95.5,128.9,82.7,134.2z"/>
	</g>
</g>
</svg>
