<svg width="99" height="32" viewBox="0 0 99 32" fill="none" xmlns="http://www.w3.org/2000/svg">
<rect width="99" height="32" fill="#F5B051"/>
<path d="M9.91953 10.368H8.62353V19.552H9.53553C11.2635 19.552 12.8635 19.456 14.7355 19.072L14.5595 17.968C12.8955 18.304 11.4555 18.4 9.91953 18.416V10.368ZM15.8075 13.648H12.6075V14.736H15.8075V22.464H17.0555V9.184H15.8075V13.648ZM18.8635 8.816V23.184H20.1115V8.816H18.8635ZM34.1583 16.576H25.6303V14.304H33.6943V13.264H25.6303V11.136H34.0143V10.08H24.3023V17.632H34.1583V16.576ZM22.6223 20.256V21.328H35.6463V20.256H22.6223ZM41.981 10.56C43.373 10.56 44.349 11.296 44.349 12.368C44.349 13.472 43.373 14.192 41.981 14.192C40.589 14.192 39.613 13.472 39.613 12.368C39.613 11.296 40.589 10.56 41.981 10.56ZM41.981 15.2C44.109 15.2 45.581 14.064 45.581 12.368C45.581 10.688 44.109 9.552 41.981 9.552C39.853 9.552 38.381 10.688 38.381 12.368C38.381 14.064 39.853 15.2 41.981 15.2ZM46.749 15.92C43.629 16.368 40.013 16.384 37.309 16.384L37.469 17.488C38.605 17.488 39.901 17.472 41.261 17.424V22.752H42.573V17.36C43.981 17.28 45.421 17.136 46.829 16.896L46.749 15.92ZM47.837 8.848V18.64H44.589V19.664H47.837V23.2H49.149V8.848H47.837ZM53.2598 14.656L53.4518 15.744L62.1078 15.264C62.0278 16.368 61.8678 17.552 61.5478 18.928L62.8438 19.056C63.4678 16.112 63.4678 14.176 63.4678 12.048V10.288H53.6278V11.36H62.1878V12.048C62.1878 12.784 62.1878 13.52 62.1558 14.272L53.2598 14.656ZM52.0918 20.112V21.184H65.0678V20.112H52.0918Z" fill="white"/>
<path d="M75.3147 16.3872C75.396 16.952 75.2131 17.3521 74.7862 17.7756C74.0544 18.4816 73.8715 19.6583 74.2983 20.6702C74.8065 21.8939 75.8635 22.4822 77.0019 22.2704C77.5507 22.1763 77.9572 22.1998 78.4044 22.5999" fill="#2997CD"/>
<path d="M86.7385 22.5999C87.2061 22.1998 87.6126 22.1763 88.1411 22.2704C89.2998 22.4822 90.3366 21.8939 90.8448 20.6702C91.2716 19.6347 91.0887 18.4816 90.3569 17.7756C89.9503 17.3521 89.747 16.952 89.8284 16.3872" fill="#2997CD"/>
<path d="M82.8155 8.52735C84.2181 7.39778 86.2508 8.17436 86.6574 9.98636C86.7184 10.2688 86.942 10.4805 87.2265 10.4805C88.995 10.5747 90.0724 12.5514 89.2593 14.1987C89.1373 14.4575 89.178 14.7635 89.3812 14.9517C90.6822 16.2225 90.296 18.4581 88.6698 19.1641C88.4259 19.2817 88.2632 19.5406 88.3039 19.823C88.5275 21.6585 86.8607 23.1175 85.1735 22.5763C84.9092 22.4822 84.6247 22.5998 84.4824 22.8351C83.527 24.3883 81.352 24.3883 80.3966 22.8351C80.2543 22.5998 79.9697 22.4822 79.7055 22.5763C78.0183 23.1175 76.3515 21.6585 76.5751 19.823C76.6157 19.5406 76.4531 19.2582 76.2092 19.1641C74.583 18.4346 74.1968 16.199 75.4977 14.9517C75.701 14.7635 75.7416 14.434 75.6197 14.1987C74.8066 12.5514 75.9043 10.5747 77.6524 10.4805C77.9167 10.457 78.1606 10.2688 78.2216 9.98636C78.6078 8.17436 80.6608 7.39778 82.0634 8.52735C82.287 8.71561 82.5919 8.71561 82.8155 8.52735Z" fill="white"/>
<path d="M79.319 15.3047C78.8515 15.3047 78.4856 14.9282 78.4856 14.434C78.4856 13.9869 78.8515 13.6104 79.319 13.6104C79.7256 13.6104 80.0915 13.9869 80.0915 14.434C80.0915 14.9046 79.7459 15.3047 79.319 15.3047Z" fill="#2997CD"/>
<path d="M82.287 14.3399C81.8195 14.3399 81.4536 13.9633 81.4536 13.4692C81.4536 13.022 81.8195 12.6455 82.287 12.6455C82.6936 12.6455 83.0595 13.022 83.0595 13.4692C83.0595 13.9633 82.6936 14.3399 82.287 14.3399Z" fill="#2997CD"/>
<path d="M85.2548 15.3047C84.7873 15.3047 84.4214 14.9282 84.4214 14.434C84.4214 13.9869 84.7873 13.6104 85.2548 13.6104C85.6614 13.6104 86.0273 13.9869 86.0273 14.434C86.0273 14.9046 85.6614 15.3047 85.2548 15.3047Z" fill="#2997CD"/>
<path fill-rule="evenodd" clip-rule="evenodd" d="M79.9675 15.9019C80.1266 15.7736 80.3454 15.819 80.4562 16.0032L80.1682 16.2354C80.4562 16.0032 80.4562 16.0031 80.4562 16.0032L80.4568 16.004L80.4576 16.0054L80.46 16.0095C80.462 16.0129 80.4648 16.0176 80.4682 16.0235C80.4751 16.0353 80.4847 16.0521 80.4968 16.0735C80.5209 16.1164 80.5546 16.1781 80.5952 16.2565C80.6761 16.4131 80.7846 16.6372 80.8969 16.9113C81.1201 17.4556 81.3663 18.2157 81.4324 19.0455C81.4503 19.269 81.3082 19.4669 81.1152 19.4876C80.9221 19.5082 80.7511 19.3437 80.7333 19.1202C80.6775 18.4204 80.4664 17.7568 80.2626 17.2598C80.1616 17.0132 80.0642 16.8123 79.9927 16.674C79.957 16.6049 79.9279 16.5517 79.9082 16.5166C79.8983 16.499 79.8908 16.486 79.886 16.4777L79.8809 16.469L79.8801 16.4677C79.7694 16.2835 79.8085 16.0302 79.9675 15.9019ZM79.8799 16.4674C79.8799 16.4673 79.8799 16.4674 79.8799 16.4674ZM84.5562 15.9019C84.7152 16.0301 84.7544 16.2832 84.6438 16.4673C84.6438 16.4674 84.6438 16.4675 84.6437 16.4675L84.3556 16.2354L84.0675 16.0032C84.1783 15.819 84.3971 15.7736 84.5562 15.9019ZM84.6437 16.4675L84.6429 16.469L84.6377 16.4777C84.6329 16.486 84.6254 16.499 84.6156 16.5166C84.5958 16.5517 84.5667 16.6049 84.531 16.674C84.4595 16.8123 84.3622 17.0132 84.2611 17.2598C84.0573 17.7568 83.8462 18.4204 83.7904 19.1202C83.7726 19.3437 83.6016 19.5082 83.4086 19.4876C83.2155 19.4669 83.0735 19.269 83.0913 19.0455C83.1574 18.2157 83.4037 17.4556 83.6268 16.9113C83.7391 16.6372 83.8476 16.4131 83.9286 16.2565C83.9691 16.1781 84.0029 16.1164 84.0269 16.0735C84.039 16.0521 84.0486 16.0353 84.0555 16.0235C84.059 16.0176 84.0617 16.0129 84.0637 16.0095L84.0662 16.0054L84.067 16.004L84.0675 16.0032C84.0675 16.0031 84.0675 16.0032 84.3556 16.2354" fill="#2997CD"/>
</svg>
