<svg width="299" height="75" viewBox="0 0 299 75" fill="none" xmlns="http://www.w3.org/2000/svg">
<g clip-path="url(#clip0)">
<path d="M9.46532 18.7645H7.68207V12.4287H0.549072V10.9437H16.5983V12.4287H9.46532V18.7645ZM14.9141 5.39992C14.9141 6.58788 14.3197 7.57785 13.23 8.36982C12.0411 9.0628 10.456 9.45878 8.5737 9.45878C6.59231 9.45878 5.10627 9.0628 3.91743 8.36982C2.82767 7.57785 2.23325 6.58788 2.23325 5.39992C2.23325 4.21197 2.82767 3.222 3.91743 2.43003C5.0072 1.63805 6.59231 1.34106 8.5737 1.34106C10.5551 1.34106 12.0411 1.73705 13.23 2.43003C14.3197 3.123 14.9141 4.11297 14.9141 5.39992ZM8.5737 2.82601C7.18673 2.82601 6.09696 3.02401 5.30441 3.51899C4.41278 4.01397 4.0165 4.60795 4.0165 5.39992C4.0165 6.1919 4.41278 6.68688 5.20534 7.18186C5.99789 7.67684 7.08766 7.87484 8.47463 7.87484C9.8616 7.87484 10.9514 7.67684 11.7439 7.18186C12.5365 6.68688 12.9328 6.0929 12.9328 5.39992C12.9328 4.70695 12.5365 4.11297 11.7439 3.61799C11.0504 3.123 9.96067 2.82601 8.5737 2.82601Z" fill="#212322"/>
<path d="M29.1801 12.3297L29.3782 13.8146C27.1987 14.2106 24.4247 14.4086 20.9573 14.4086H18.7778V7.28084H25.4154V3.71696H18.6787V2.23201H27.1987V8.76579H20.561V12.9236H21.0564C24.5238 12.9236 27.1987 12.7256 29.1801 12.3297ZM30.6661 0.549072H32.4494V18.7644H30.6661V0.549072Z" fill="#212322"/>
<path d="M51.1735 11.3397H35.0251V9.75577H51.0744V11.3397H51.1735ZM49.3902 18.3685H37.2047V13.0227H38.9879V16.8835H49.4893V18.3685H49.3902ZM49.3902 7.67685H37.2047V1.34106H38.9879V6.1919H49.2911V7.67685H49.3902Z" fill="#212322"/>
<path d="M67.421 13.0226L66.3313 14.4086C65.4396 13.8146 64.6471 13.0226 63.7555 12.0327C62.8638 11.0427 62.3685 9.95374 61.9722 8.96378C61.675 10.0527 61.0806 11.1417 60.288 12.2307C59.4955 13.3196 58.6038 14.2106 57.6131 14.9036L56.4243 13.5176C57.8113 12.6267 58.9011 11.4387 59.7927 9.95375C60.6843 8.4688 61.0806 6.88485 61.0806 5.30091V2.13302H62.9629V5.20191C62.9629 6.88485 63.3592 8.3698 64.2508 9.75575C65.0434 11.0427 66.1331 12.2307 67.421 13.0226ZM71.3838 18.7644H69.6006V8.4688H65.6378V6.88485H69.6006V0.549072H71.3838V18.7644Z" fill="#212322"/>
<path d="M88.7208 18.5665H75.8418V14.3096H86.3431V13.0226H75.8418V11.4387H81.0925V9.75576H73.9595V8.27081H90.0087V9.75576H82.8757V11.4387H88.1264V15.5966H77.625V16.9825H88.7208V18.5665ZM88.4236 4.11296C88.4236 5.10292 87.8292 5.89489 86.7394 6.48887C85.6497 7.08285 84.0645 7.28085 82.0832 7.28085C80.1018 7.28085 78.5167 6.98386 77.4269 6.48887C76.3371 5.99389 75.7427 5.10292 75.7427 4.11296C75.7427 3.12299 76.3371 2.33102 77.4269 1.73704C78.5167 1.14306 80.1018 0.846069 82.0832 0.846069C84.0645 0.846069 85.6497 1.14306 86.7394 1.73704C87.8292 2.33102 88.4236 3.12299 88.4236 4.11296ZM81.9841 2.33102C80.5971 2.33102 79.5074 2.52901 78.7148 2.826C77.9222 3.12299 77.526 3.51898 77.526 4.11296C77.526 4.60794 77.9222 5.10292 78.7148 5.39991C79.5074 5.6969 80.5971 5.89489 81.9841 5.89489C83.3711 5.89489 84.4608 5.6969 85.2534 5.39991C86.0459 5.10292 86.4422 4.60794 86.4422 4.11296C86.4422 3.61797 86.0459 3.12299 85.2534 2.826C84.4608 2.52901 83.3711 2.33102 81.9841 2.33102Z" fill="#212322"/>
<path d="M103.185 14.1116C101.897 14.3096 99.7176 14.4086 96.6465 14.6066C95.0614 14.7056 93.2781 14.7056 91.2967 14.8046L90.9995 13.2206C93.2781 13.2206 95.1604 13.2206 96.8446 13.1216C99.4204 13.0226 101.402 12.8246 102.888 12.7256L103.185 14.1116ZM101.6 6.29087C101.6 7.47883 101.105 8.56779 100.213 9.26077C99.3213 10.0527 98.2316 10.4487 96.8446 10.4487C95.5567 10.4487 94.3679 10.0527 93.4762 9.26077C92.5846 8.4688 92.1883 7.47883 92.1883 6.29087C92.1883 5.00392 92.5846 4.01395 93.4762 3.22198C94.3679 2.43001 95.4576 2.03402 96.7455 2.03402C98.1325 2.03402 99.2223 2.43001 100.114 3.22198C101.006 4.01395 101.6 5.00392 101.6 6.29087ZM99.8167 6.29087C99.8167 5.4989 99.5195 4.80592 99.0241 4.31094C98.4297 3.81596 97.7362 3.51897 96.9437 3.51897C96.1511 3.51897 95.4576 3.81596 94.9623 4.31094C94.3679 4.80592 94.1697 5.4989 94.1697 6.29087C94.1697 7.08285 94.4669 7.67682 94.9623 8.17181C95.5567 8.66679 96.1511 8.86478 96.9437 8.86478C97.7362 8.86478 98.4297 8.66679 99.0241 8.17181C99.5195 7.67682 99.8167 7.08285 99.8167 6.29087ZM104.176 0.549072H105.959V18.7644H104.176V0.549072Z" fill="#212322"/>
<path d="M143.903 18.7645H142.119V12.2307H134.986V10.7457H151.135V12.2307H144.002V18.7645H143.903ZM150.441 7.47885L149.55 8.9638C148.163 8.66681 146.875 8.17182 145.587 7.37985C144.299 6.58788 143.407 5.69691 143.011 4.70694C142.615 5.69691 141.822 6.58788 140.534 7.37985C139.246 8.17182 137.859 8.7658 136.472 9.06279L135.68 7.47885C137.364 7.28085 138.85 6.68687 140.138 5.59791C141.426 4.60795 142.119 3.51898 142.119 2.23203V1.14307H144.002V2.33103C144.002 3.123 144.299 3.91497 144.992 4.70694C145.686 5.49892 146.478 6.0929 147.469 6.58788C148.46 7.08286 149.55 7.37985 150.441 7.47885Z" fill="#212322"/>
<path d="M165.698 9.26077H157.277V1.83603H165.698V9.26077ZM163.815 17.8735C162.23 18.2695 160.348 18.4675 158.268 18.4675V11.7357H159.952V16.8835C161.339 16.7845 162.428 16.6855 163.518 16.3885L163.815 17.8735ZM163.915 7.87482V3.32098H159.06V7.87482H163.915ZM172.137 13.8146H163.32V12.4287H172.137V13.8146ZM170.057 14.9036C170.651 15.2996 171.048 15.8935 171.048 16.5865C171.048 17.2795 170.75 17.8735 170.057 18.2695C169.363 18.6654 168.571 18.8634 167.679 18.8634C166.788 18.8634 165.995 18.6654 165.302 18.2695C164.608 17.8735 164.311 17.2795 164.311 16.5865C164.311 15.8935 164.608 15.2996 165.302 14.9036C165.896 14.5076 166.688 14.3096 167.679 14.3096C168.67 14.3096 169.462 14.5076 170.057 14.9036ZM169.859 11.7357H165.698V10.2507H169.859V11.7357ZM168.868 17.2795C169.165 17.0815 169.363 16.8835 169.363 16.5865C169.363 16.2895 169.165 16.0915 168.868 15.8935C168.571 15.6955 168.175 15.5965 167.679 15.5965C167.184 15.5965 166.788 15.6955 166.49 15.8935C166.193 16.0915 165.995 16.2895 165.995 16.5865C165.995 16.8835 166.193 17.0815 166.49 17.2795C166.788 17.4775 167.184 17.5765 167.679 17.5765C168.175 17.5765 168.571 17.4775 168.868 17.2795ZM173.128 5.99388H170.453V9.55776H168.67V0.549072H170.453V4.50893H173.128V5.99388Z" fill="#212322"/>
<path d="M189.97 11.3397H173.921V9.75577H189.97V11.3397ZM186.502 2.03403C187.592 2.62801 188.187 3.51898 188.187 4.70694C188.187 5.8949 187.592 6.68687 186.502 7.37985C185.413 7.97383 183.828 8.36981 181.945 8.36981C180.063 8.36981 178.478 8.07282 177.388 7.37985C176.298 6.78587 175.704 5.8949 175.704 4.70694C175.704 3.51898 176.298 2.72701 177.388 2.03403C178.478 1.34106 179.964 1.04407 181.945 1.04407C183.927 1.14306 185.413 1.44005 186.502 2.03403ZM188.088 18.1705H176.001V12.9237H177.784V16.6855H188.088V18.1705ZM181.945 2.62801C180.657 2.62801 179.568 2.82601 178.874 3.22199C178.181 3.61798 177.685 4.11296 177.685 4.70694C177.685 5.30092 178.082 5.8949 178.874 6.19189C179.667 6.48888 180.657 6.78587 181.945 6.78587C183.233 6.78587 184.323 6.58788 185.115 6.19189C185.908 5.7959 186.304 5.30092 186.304 4.70694C186.304 4.11296 185.908 3.51898 185.115 3.22199C184.323 2.925 183.233 2.62801 181.945 2.62801Z" fill="#212322"/>
<path d="M196.211 8.3698C196.211 6.48887 196.607 4.90492 197.4 3.71696C198.193 2.529 199.282 1.93502 200.867 1.93502C202.353 1.93502 203.542 2.529 204.236 3.71696C205.028 4.90492 205.425 6.48887 205.425 8.3698C205.425 10.2507 205.028 11.8347 204.236 13.0226C203.443 14.2106 202.353 14.8046 200.867 14.8046C199.381 14.8046 198.193 14.2106 197.4 13.0226C196.607 11.8347 196.211 10.2507 196.211 8.3698ZM202.849 11.8347C203.344 10.9437 203.542 9.75575 203.542 8.3698C203.542 6.98385 203.344 5.69689 202.849 4.90492C202.353 4.01395 201.66 3.61797 200.768 3.61797C199.877 3.61797 199.183 4.01395 198.688 4.90492C198.193 5.79589 197.994 6.98385 197.994 8.3698C197.994 9.75575 198.193 10.9437 198.688 11.8347C199.183 12.7256 199.877 13.1216 200.768 13.1216C201.759 13.1216 202.453 12.7256 202.849 11.8347ZM210.279 18.7644H208.496V0.549072H210.279V18.7644Z" fill="#212322"/>
<path d="M214.242 12.9236C213.449 11.7357 213.053 10.1517 213.053 8.2708C213.053 6.38987 213.449 4.80592 214.242 3.61797C215.034 2.43001 216.124 1.83603 217.61 1.83603C219.096 1.83603 220.285 2.43001 221.078 3.61797C221.87 4.80592 222.266 6.38987 222.266 8.2708C222.266 10.1517 221.87 11.7357 221.078 12.9236C220.285 14.1116 219.195 14.7056 217.61 14.7056C216.124 14.7056 214.935 14.1116 214.242 12.9236ZM220.384 8.2708C220.384 6.78586 220.186 5.5979 219.691 4.70693C219.195 3.81596 218.502 3.32098 217.61 3.32098C216.719 3.32098 216.025 3.71696 215.53 4.60793C215.034 5.4989 214.836 6.68686 214.836 8.17181C214.836 9.65676 215.034 10.7457 215.53 11.6367C216.025 12.5277 216.719 12.9236 217.61 12.9236C218.502 12.9236 219.195 12.5277 219.691 11.6367C220.186 10.8447 220.384 9.75575 220.384 8.2708ZM229.399 5.00392V6.58786H226.526V10.7457H229.399V12.2307H226.526V18.7644H224.743V0.549072H226.526V5.00392H229.399Z" fill="#212322"/>
<path d="M239.505 2.529C239.406 5.30091 238.712 7.77582 237.226 9.95375C235.74 12.1317 233.759 13.9136 231.183 15.2996L230.093 13.9136C232.173 12.9236 233.957 11.5377 235.245 9.75575C236.533 7.97381 237.325 6.09288 237.523 4.21195H230.886V2.529H239.505ZM244.755 18.7644H242.972V0.549072H244.755V18.7644Z" fill="#212322"/>
<path d="M263.479 10.3497H247.43V8.9638H263.479V10.3497ZM262.191 18.3685H249.213V14.4086H259.814V13.0227H249.213V11.6367H261.597V15.6956H250.997V16.9825H262.191V18.3685ZM261.795 7.67684H249.312V3.81597H259.616V2.52902H249.312V1.14307H261.399V5.00393H251.195V6.19189H261.894V7.67684H261.795Z" fill="#212322"/>
<path d="M14.716 35.099H9.46532V37.2769H16.5983V38.7618H0.549072V37.2769H7.68207V35.099H2.53046V28.9612H14.6169V30.4461H4.31371V33.614H14.716V35.099ZM13.1309 40.8408C14.2207 41.4348 14.716 42.2267 14.716 43.2167C14.716 44.2067 14.2207 44.9986 13.1309 45.5926C12.0411 46.1866 10.5551 46.4836 8.5737 46.4836C6.59231 46.4836 5.10627 46.1866 4.0165 45.5926C2.92674 44.9986 2.43139 44.2067 2.43139 43.2167C2.43139 42.2267 2.92674 41.4348 4.0165 40.8408C5.10627 40.2468 6.59231 39.9498 8.5737 39.9498C10.5551 39.9498 12.0411 40.2468 13.1309 40.8408ZM8.5737 41.4348C7.2858 41.4348 6.19603 41.6327 5.40348 41.9297C4.61092 42.2267 4.21464 42.6227 4.21464 43.2167C4.21464 43.8107 4.61092 44.2067 5.40348 44.5036C6.19603 44.8006 7.18673 44.9986 8.5737 44.9986C9.96067 44.9986 10.9514 44.8006 11.7439 44.5036C12.5365 44.2067 12.9328 43.8107 12.9328 43.2167C12.9328 42.6227 12.5365 42.2267 11.7439 41.9297C10.9514 41.6327 9.96067 41.4348 8.5737 41.4348Z" fill="#212322"/>
<path d="M26.3071 41.2367C24.821 41.6327 22.9387 41.8307 20.3629 41.8307H18.6787V30.2481H20.462V40.2468C22.9387 40.2468 24.7219 40.0488 26.0099 39.7518L26.3071 41.2367ZM27.4959 35.5939H23.6322V34.109H27.4959V28.6642H29.2791V45.5926H27.4959V35.5939ZM32.8456 46.3846H31.0624V28.2682H32.8456V46.3846Z" fill="#212322"/>
<path d="M48.0033 41.2367C46.5173 41.6327 44.635 41.8307 42.0592 41.8307H40.375V30.2481H42.1582V40.2468C44.635 40.2468 46.4182 40.0488 47.7061 39.7518L48.0033 41.2367ZM49.1922 35.5939H45.3285V34.109H49.1922V28.6642H50.9754V45.5926H49.1922V35.5939ZM54.5419 46.3846H52.7587V28.2682H54.5419V46.3846Z" fill="#212322"/>
<path d="M72.7707 44.1076H56.7214V42.6226H72.7707V44.1076ZM70.2939 35.3959H60.4861V37.9698H70.8884V39.4547H58.7028V29.951H70.7893V31.436H60.4861V33.9109H70.2939V35.3959Z" fill="#212322"/>
<path d="M80.5972 45.8896H78.814V39.5538C78.1205 39.5538 77.2288 39.6528 76.04 39.6528C74.8512 39.6528 74.1577 39.6528 73.9596 39.6528L73.6624 38.0688C75.5447 38.0688 77.5261 38.0688 79.7056 37.9699C82.3805 37.8709 84.3618 37.6729 85.6497 37.5739L85.8479 38.9598C84.8572 39.0588 83.0739 39.2568 80.5972 39.3558V45.8896ZM84.4609 32.921C84.4609 34.01 84.0646 34.901 83.173 35.6929C82.2814 36.4849 81.1916 36.7819 79.8046 36.7819C78.4177 36.7819 77.3279 36.3859 76.4363 35.6929C75.5447 35 75.1484 34.109 75.1484 32.921C75.1484 31.7331 75.5447 30.8421 76.4363 30.1491C77.3279 29.4561 78.4177 29.0602 79.8046 29.0602C81.1916 29.0602 82.3805 29.4561 83.173 30.1491C83.9656 30.8421 84.4609 31.8321 84.4609 32.921ZM82.5786 32.921C82.5786 32.2281 82.2814 31.6341 81.786 31.2381C81.2907 30.8421 80.5972 30.6441 79.7056 30.6441C78.913 30.6441 78.2195 30.8421 77.7242 31.2381C77.2288 31.6341 76.9316 32.2281 76.9316 32.921C76.9316 33.614 77.2288 34.109 77.7242 34.505C78.2195 34.901 78.913 35.099 79.7056 35.099C80.4981 35.099 81.1916 34.901 81.786 34.505C82.2814 34.109 82.5786 33.614 82.5786 32.921ZM88.7209 46.3846H86.9376V42.1277H82.9749V40.6428H86.9376V28.2682H88.7209V46.3846Z" fill="#212322"/>
<path d="M107.346 43.9097H91.1978V42.4247H107.247V43.9097H107.346ZM105.266 30.1492V32.7231C105.266 34.208 105.167 35.693 104.968 37.3759C104.77 39.0589 104.572 40.3458 104.374 41.4348L102.69 41.2368C102.888 40.1478 103.086 38.5639 103.284 36.7819L92.981 37.2769L92.6838 35.792L103.383 35.396C103.383 35 103.383 34.406 103.383 33.713V31.7331H93.1791V30.2482H105.266V30.1492Z" fill="#212322"/>
<path d="M124.584 38.0689H108.535V36.6829H124.584V38.0689ZM123.296 46.0876H110.318V42.1277H120.918V40.7418H110.318V39.3558H122.702V43.4147H112.101V44.7016H123.296V46.0876ZM122.999 35.396H110.516V31.5351H120.819V30.2481H110.516V28.8622H122.603V32.723H112.299V33.911H122.999V35.396Z" fill="#212322"/>
<path d="M144.2 36.1879H139.048V37.8709H146.181V39.3558H130.132V37.8709H137.265V36.1879H132.113V29.0602H144.101V30.5451H133.896V31.9311H143.902V33.317H133.896V34.703H144.2V36.1879ZM144.299 43.4147C144.299 44.4046 143.803 45.1966 142.714 45.7906C141.624 46.3846 140.138 46.6816 138.156 46.6816C136.175 46.6816 134.59 46.3846 133.599 45.7906C132.51 45.1966 132.014 44.4046 132.014 43.4147C132.014 42.4247 132.51 41.6327 133.599 41.0388C134.689 40.4448 136.175 40.1478 138.156 40.1478C140.138 40.1478 141.723 40.4448 142.714 40.9398C143.803 41.5337 144.299 42.3257 144.299 43.4147ZM138.156 41.7317C136.869 41.7317 135.779 41.9297 134.986 42.2267C134.194 42.5237 133.797 42.9197 133.797 43.4147C133.797 43.9097 134.194 44.3057 134.986 44.6026C135.779 44.8996 136.769 45.0976 138.156 45.0976C139.543 45.0976 140.534 44.8996 141.327 44.6026C142.119 44.3057 142.516 43.9097 142.516 43.4147C142.516 42.9197 142.119 42.5237 141.327 42.2267C140.534 41.8307 139.543 41.7317 138.156 41.7317Z" fill="#212322"/>
<path d="M156.286 34.208H147.469V32.723H156.286V34.208ZM155.89 38.6628C155.89 39.7518 155.494 40.6428 154.8 41.2367C154.107 41.9297 153.116 42.2267 151.927 42.2267C150.738 42.2267 149.847 41.9297 149.054 41.2367C148.361 40.5438 147.964 39.7518 147.964 38.6628C147.964 37.5739 148.361 36.6829 149.054 36.0889C149.748 35.3959 150.738 35.099 151.927 35.099C153.116 35.099 154.008 35.3959 154.8 36.0889C155.494 36.6829 155.89 37.5739 155.89 38.6628ZM154.206 31.1391H149.45V29.6541H154.206V31.1391ZM153.512 40.1478C153.908 39.7518 154.107 39.2568 154.107 38.6628C154.107 38.0688 153.908 37.5739 153.512 37.1779C153.116 36.7819 152.621 36.5839 151.927 36.5839C151.333 36.5839 150.738 36.7819 150.342 37.1779C149.946 37.5739 149.748 38.0688 149.748 38.6628C149.748 39.2568 149.946 39.7518 150.342 40.1478C150.738 40.5438 151.234 40.7418 151.927 40.7418C152.621 40.7418 153.116 40.5438 153.512 40.1478ZM162.428 46.3846H160.744V37.2769H158.862V45.4936H157.178V28.6642H158.862V35.7919H160.744V28.2682H162.428V46.3846Z" fill="#212322"/>
<path d="M207.307 44.1077H191.258V42.6227H198.391V38.3659H193.239V29.7532H205.524V31.2381H195.022V36.8809H205.623V38.3659H200.273V42.6227H207.406V44.1077H207.307Z" fill="#212322"/>
<path d="M218.997 38.5638C216.917 38.9598 214.44 39.1578 211.666 39.1578H209.09V33.416H215.332V30.9411H208.991V29.4561H217.115V34.901H210.874V37.7719C214.44 37.7719 217.016 37.5739 218.7 37.1779L218.997 38.5638ZM222.861 45.9886H210.973V40.7417H212.756V44.5036H222.861V45.9886ZM222.167 28.2682V33.713H224.842V35.1979H222.167V41.4347H220.384V28.2682H222.167Z" fill="#212322"/>
<path d="M241.783 44.1077H225.734V42.6227H232.867V38.3659H227.715V29.7532H240V31.2381H229.399V36.8809H240V38.3659H234.65V42.6227H241.783V44.1077Z" fill="#212322"/>
<path d="M253.473 38.5638C251.393 38.9598 248.916 39.1578 246.142 39.1578H243.566V33.416H249.808V30.9411H243.467V29.4561H251.591V34.901H245.35V37.7719C248.916 37.7719 251.492 37.5739 253.176 37.1779L253.473 38.5638ZM257.337 45.9886H245.449V40.7417H247.232V44.5036H257.337V45.9886ZM256.644 28.2682V33.713H259.318V35.1979H256.644V41.4347H254.86V28.2682H256.644Z" fill="#212322"/>
<path d="M280.718 44.1077H264.668V42.6227H271.801V38.5639H266.65V29.8522H278.835V38.5639H273.585V42.6227H280.718V44.1077ZM276.953 37.0789V31.4361H268.334V37.0789H276.953Z" fill="#212322"/>
<path d="M283.293 40.6428C282.501 39.4548 282.104 37.8709 282.104 35.9899C282.104 34.109 282.501 32.525 283.293 31.3371C284.086 30.1491 285.176 29.5551 286.662 29.5551C288.148 29.5551 289.237 30.1491 290.03 31.3371C290.823 32.525 291.12 34.109 291.12 35.9899C291.12 37.8709 290.724 39.4548 290.03 40.6428C289.337 41.8307 288.148 42.4247 286.662 42.4247C285.176 42.4247 283.987 41.8307 283.293 40.6428ZM289.337 35.9899C289.337 34.505 289.138 33.317 288.643 32.426C288.148 31.5351 287.454 31.0401 286.662 31.0401C285.869 31.0401 285.077 31.4361 284.68 32.327C284.185 33.218 283.987 34.406 283.987 35.8909C283.987 37.3759 284.185 38.4648 284.68 39.3558C285.176 40.2468 285.77 40.6428 286.662 40.6428C287.553 40.6428 288.247 40.2468 288.643 39.3558C289.138 38.5638 289.337 37.4749 289.337 35.9899ZM298.451 36.9799H295.578V46.3846H293.795V28.2682H295.578V35.4949H298.451V36.9799Z" fill="#212322"/>
<path d="M9.56439 70.3417H7.78114V66.7778H0.549072V65.2929H16.5983V66.7778H9.56439V70.3417ZM14.8151 73.6086H2.53046V68.5598H4.31371V72.1236H14.8151V73.6086ZM14.6169 63.3129H2.62953V56.9772H14.6169V63.3129ZM12.8337 61.828V58.4621H4.41278V61.828H12.8337Z" fill="#212322"/>
<path d="M28.8829 70.5397C27.595 70.7377 25.5146 70.9357 22.7406 71.0347C20.9574 71.1336 19.2732 71.1337 17.6881 71.1337L17.3909 69.5497C19.3723 69.5497 20.9574 69.5497 22.1462 69.4507V67.7678C21.1555 67.6688 20.363 67.2728 19.6695 66.7778C19.075 66.1838 18.7778 65.5898 18.7778 64.7979C18.7778 63.9069 19.1741 63.1149 19.9667 62.521C20.7592 61.927 21.7499 61.63 23.0378 61.63C24.3257 61.63 25.3164 61.927 26.109 62.521C26.9015 63.1149 27.2978 64.0059 27.2978 64.8969C27.2978 65.6888 27.0006 66.3818 26.4062 66.8768C25.8118 67.4708 25.0192 67.7678 23.9295 67.8668V69.4507C25.8118 69.3517 27.3969 69.2527 28.6848 69.0547L28.8829 70.5397ZM28.4866 61.036H17.8862V59.5511H28.4866V61.036ZM25.6136 58.3631H20.5611V56.8782H25.6136V58.3631ZM25.5146 64.8969C25.5146 64.4019 25.3164 64.0059 24.8211 63.7089C24.3257 63.4119 23.8304 63.2139 23.1369 63.2139C22.4434 63.2139 21.849 63.4119 21.4527 63.7089C20.9574 64.0059 20.7592 64.4019 20.7592 64.8969C20.7592 65.2929 20.9574 65.6888 21.4527 66.0848C21.9481 66.4808 22.4434 66.5798 23.1369 66.5798C23.8304 66.5798 24.4248 66.3818 24.8211 66.0848C25.2174 65.7878 25.5146 65.3919 25.5146 64.8969ZM34.4308 65.5898H31.6569V74.1035H29.8736V55.9872H31.6569V64.1049H34.4308V65.5898Z" fill="#212322"/>
<path d="M47.0127 69.5497C45.7248 69.7477 43.5453 69.8467 40.4741 70.0447C38.889 70.1437 37.1057 70.1437 35.1244 70.2427L34.8271 68.6587C37.1057 68.6587 38.9881 68.6587 40.6722 68.5597C43.2481 68.4607 45.2294 68.2628 46.7155 68.1638L47.0127 69.5497ZM45.4276 61.729C45.4276 62.9169 44.9322 64.0059 44.0406 64.6989C43.149 65.4909 42.0592 65.8868 40.6722 65.8868C39.3843 65.8868 38.1955 65.4909 37.3039 64.6989C36.4123 63.9069 36.016 62.9169 36.016 61.729C36.016 60.442 36.4123 59.4521 37.3039 58.6601C38.1955 57.8681 39.2853 57.4721 40.5732 57.4721C41.9602 57.4721 43.0499 57.8681 43.9415 58.6601C44.8332 59.4521 45.4276 60.442 45.4276 61.729ZM43.6443 61.729C43.6443 60.937 43.3471 60.244 42.8518 59.7491C42.2574 59.2541 41.5639 58.9571 40.7713 58.9571C39.9788 58.9571 39.2853 59.2541 38.7899 59.7491C38.1955 60.244 37.9974 60.937 37.9974 61.729C37.9974 62.521 38.2946 63.1149 38.7899 63.6099C39.3843 64.1049 39.9788 64.3029 40.7713 64.3029C41.5639 64.3029 42.2574 64.1049 42.8518 63.6099C43.3471 63.1149 43.6443 62.422 43.6443 61.729ZM48.0034 55.9872H49.7866V74.2025H48.0034V55.9872Z" fill="#212322"/>
<path d="M57.1177 58.9571V57.4721H66.8265V58.9571H62.9628V59.5511C62.9628 60.739 63.3591 61.828 64.2507 62.8179C65.1423 63.8079 66.133 64.5009 67.2228 64.7979L66.2321 66.2828C65.4395 65.9858 64.647 65.3919 63.8544 64.6989C63.0618 64.0059 62.4674 63.2139 62.0711 62.422C61.7739 63.3129 61.1795 64.1049 60.387 64.9959C59.4953 65.8868 58.6037 66.4808 57.613 66.8768L56.6223 65.3919C57.8111 64.9959 58.9009 64.2039 59.7925 63.1149C60.6842 62.026 61.1795 60.838 61.1795 59.6501V58.9571H57.1177ZM69.8976 68.0648C70.9874 68.6587 71.4827 69.5497 71.4827 70.6387C71.4827 71.7276 70.9874 72.6186 69.8976 73.2126C68.8079 73.8066 67.3218 74.1035 65.4395 74.1035C63.5572 74.1035 62.0711 73.8066 60.9814 73.2126C59.8916 72.6186 59.3963 71.7276 59.3963 70.6387C59.3963 69.5497 59.8916 68.6587 60.9814 68.0648C62.0711 67.4708 63.4581 67.0748 65.4395 67.0748C67.3218 67.0748 68.8079 67.3718 69.8976 68.0648ZM65.4395 68.6587C64.1516 68.6587 63.1609 68.8567 62.3684 69.1537C61.6749 69.5497 61.2786 70.0447 61.2786 70.6387C61.2786 71.2327 61.6749 71.7276 62.3684 72.1236C63.0618 72.5196 64.1516 72.6186 65.4395 72.6186C66.7274 72.6186 67.8172 72.4206 68.5107 72.1236C69.2041 71.7276 69.6004 71.2327 69.6004 70.6387C69.6004 70.0447 69.2041 69.5497 68.5107 69.1537C67.8172 68.7577 66.7274 68.6587 65.4395 68.6587ZM69.5014 62.026H66.133V60.541H69.5014V55.9872H71.2846V67.2728H69.5014V62.026Z" fill="#212322"/>
<path d="M80.6962 69.1537H78.9129V65.8868C78.2194 65.8868 77.3278 65.9858 76.139 65.9858C74.9501 65.9858 74.2566 65.9858 74.1576 65.9858L73.8604 64.5009C76.139 64.5009 78.1203 64.5009 79.8045 64.4019C82.0831 64.3029 83.9654 64.2039 85.5506 64.0059L85.6496 65.3918C84.6589 65.5898 82.9748 65.6888 80.7952 65.7878V69.1537H80.6962ZM84.3617 60.244C84.3617 61.234 83.9654 62.026 83.0738 62.7189C82.1822 63.4119 81.0924 63.6099 79.7055 63.6099C78.3185 63.6099 77.2287 63.3129 76.3371 62.7189C75.4455 62.125 75.0492 61.333 75.0492 60.244C75.0492 59.2541 75.4455 58.4621 76.3371 57.7691C77.2287 57.1751 78.3185 56.8782 79.7055 56.8782C81.0924 56.8782 82.1822 57.1751 83.0738 57.7691C83.9654 58.3631 84.3617 59.1551 84.3617 60.244ZM89.018 73.7076H76.139V68.3617H77.9222V72.1236H89.018V73.7076ZM82.3803 60.244C82.3803 59.6501 82.0831 59.2541 81.5878 58.8581C81.0924 58.4621 80.3989 58.3631 79.6064 58.3631C78.8138 58.3631 78.1203 58.5611 77.625 58.8581C77.1296 59.2541 76.8324 59.6501 76.8324 60.244C76.8324 60.739 77.1296 61.234 77.625 61.63C78.1203 62.026 78.8138 62.125 79.6064 62.125C80.3989 62.125 81.0924 61.927 81.5878 61.63C82.1822 61.234 82.3803 60.739 82.3803 60.244ZM88.7208 69.9457H86.9375V67.9658H83.4701V66.5798H86.9375V55.9872H88.7208V69.9457Z" fill="#212322"/>
<path d="M107.346 71.7276H91.1978V70.2426H107.247V71.7276H107.346ZM105.662 62.2239C105.662 63.6098 105.067 64.7978 103.879 65.6888C102.69 66.5797 101.105 66.9757 99.2224 66.9757C97.3401 66.9757 95.755 66.5797 94.5661 65.6888C93.3773 64.7978 92.7829 63.7088 92.7829 62.2239C92.7829 60.8379 93.3773 59.65 94.5661 58.858C95.755 57.967 97.241 57.571 99.2224 57.571C101.105 57.571 102.69 57.967 103.879 58.858C105.067 59.749 105.662 60.8379 105.662 62.2239ZM103.879 62.2239C103.879 61.3329 103.482 60.5409 102.591 59.947C101.699 59.353 100.609 59.056 99.2224 59.056C97.8354 59.056 96.7456 59.353 95.9531 59.947C95.1605 60.5409 94.6652 61.3329 94.6652 62.2239C94.6652 63.1149 95.0615 63.9068 95.9531 64.5008C96.8447 65.0948 97.9345 65.3918 99.2224 65.3918C100.609 65.3918 101.699 65.0948 102.591 64.5008C103.482 63.9068 103.879 63.1149 103.879 62.2239Z" fill="#212322"/>
<path d="M124.584 71.8267H108.535V70.3417H115.668V67.4708H110.516V61.63H120.918V58.9571H110.516V57.4722H122.702V63.115H112.299V65.9859H123.098V67.4708H117.451V70.3417H124.584V71.8267Z" fill="#212322"/>
<path d="M161.339 57.8681C161.24 60.739 160.546 63.2139 159.159 65.2929C157.772 67.4708 155.89 69.1537 153.314 70.5397L152.224 69.1537C154.305 68.1638 155.989 66.7778 157.178 64.9959C158.466 63.2139 159.159 61.333 159.357 59.3531H153.017V57.7691H161.339V57.8681ZM165.995 55.9872V63.4119H168.868V64.9959H165.995V74.2025H164.212V55.9872H165.995Z" fill="#212322"/>
<path d="M183.728 57.1752C183.728 59.9471 183.53 62.521 183.035 64.6989H185.611V66.1839H178.478V74.1036H176.695V66.1839H169.562V64.6989H173.822C174.416 62.62 174.614 60.6401 174.614 58.6601H170.849V57.1752H176.496C176.496 59.5511 176.199 62.125 175.605 64.6989H181.351C181.747 62.917 182.044 60.838 182.044 58.6601H177.883V57.1752H183.728Z" fill="#212322"/>
<path d="M187.988 68.3618C187.196 67.1738 186.8 65.5898 186.8 63.7089C186.8 61.828 187.196 60.244 187.988 59.0561C188.781 57.8681 189.871 57.2741 191.456 57.2741C192.843 57.2741 193.933 57.7691 194.626 58.7591C195.419 59.749 195.815 61.135 195.914 62.8179H199.48V55.8882H201.264V74.1036H199.48V64.4019H195.914C195.815 66.0848 195.419 67.4708 194.626 68.5597C193.833 69.6487 192.843 70.1437 191.357 70.1437C189.871 70.1437 188.781 69.5497 187.988 68.3618ZM194.131 63.7089C194.131 62.224 193.933 61.036 193.437 60.145C192.942 59.2541 192.248 58.7591 191.456 58.7591C190.564 58.7591 189.871 59.1551 189.474 60.046C188.979 60.937 188.781 62.125 188.781 63.6099C188.781 65.0949 188.979 66.1838 189.474 67.0748C189.97 67.9658 190.663 68.3618 191.456 68.3618C192.347 68.3618 193.041 67.9658 193.437 67.0748C193.933 66.2828 194.131 65.1939 194.131 63.7089Z" fill="#212322"/>
<path d="M219.195 68.6587C217.313 69.1537 214.44 69.4507 210.675 69.5497C210.279 69.5497 209.784 69.5497 208.991 69.5497V57.7691H210.774V67.8668C211.963 67.8668 213.449 67.7678 215.034 67.6688C216.62 67.5698 217.907 67.3718 218.898 67.0748C218.997 67.7678 219.096 68.2628 219.195 68.6587ZM222.167 55.9872V63.1149H225.04V64.6989H222.167V74.2025H220.384V55.9872H222.167Z" fill="#212322"/>
<path d="M226.328 57.0761H234.452C234.353 59.4521 233.56 61.333 232.074 62.8179C230.588 64.3029 228.706 65.3919 226.328 65.9858L225.437 64.4019C227.22 64.1049 228.706 63.4119 230.093 62.323C231.381 61.234 232.173 60.046 232.471 58.6601H226.328V57.0761ZM239.406 73.9056H228.112V66.6788H229.895V68.8567H237.622V66.6788H239.406V73.9056ZM237.622 72.4206V70.2427H229.895V72.4206H237.622ZM242.08 61.729H239.406V65.6888H237.622V55.9872H239.406V60.244H242.08V61.729Z" fill="#212322"/>
<path d="M254.068 67.2728L254.266 68.7577C253.275 69.0547 251.987 69.2527 250.303 69.3517C248.619 69.4507 247.034 69.5497 245.647 69.6487H243.963V57.8681H245.746V68.0648C247.034 68.0648 248.52 67.9658 250.105 67.8668C251.789 67.6688 253.077 67.4708 254.068 67.2728ZM257.535 55.9872V74.2025H255.752V55.9872H257.535Z" fill="#212322"/>
<path d="M262.687 68.1638H263.38C266.551 68.1638 269.027 67.9658 270.811 67.5698L271.009 69.0547C269.126 69.4507 266.451 69.6487 262.885 69.6487H260.904V57.8681H269.324V59.3531H262.687V68.1638ZM273.981 55.9872V63.1149H276.755V64.6989H273.981V74.2025H272.198V55.9872H273.981Z" fill="#212322"/>
<path d="M277.547 72.3216V70.2427H279.529V72.3216H277.547Z" fill="#212322"/>
<path d="M186.7 35.2968C186.205 35.0988 185.908 34.8018 185.71 34.3069C184.818 30.644 181.252 28.0701 177.19 28.0701C173.128 28.0701 169.561 30.644 168.67 34.3069C168.571 34.8018 168.175 35.0988 167.679 35.2968C166.788 35.5938 166.193 36.4848 166.193 37.5737C166.193 38.7617 166.887 39.7517 167.976 39.9497C168.472 40.0487 168.868 40.2466 169.066 40.8406C170.552 43.8105 173.524 45.9885 177.19 45.9885C180.756 45.9885 183.827 43.8105 185.314 40.8406C185.611 40.3456 185.809 40.1477 186.304 39.9497C187.295 39.5537 188.087 38.7617 188.087 37.5737C188.187 36.5838 187.592 35.6928 186.7 35.2968ZM173.623 38.6627C173.029 38.6627 172.633 38.1677 172.633 37.6727C172.633 37.1778 173.128 36.6828 173.623 36.6828C174.119 36.6828 174.614 37.1778 174.614 37.6727C174.614 38.1677 174.119 38.6627 173.623 38.6627ZM177.19 40.0487C176.595 40.0487 176.199 39.5537 176.199 39.0587C176.199 38.5637 176.694 38.0687 177.19 38.0687C177.685 38.0687 178.181 38.5637 178.181 39.0587C178.181 39.6527 177.685 40.0487 177.19 40.0487ZM180.756 38.6627C180.162 38.6627 179.766 38.1677 179.766 37.6727C179.766 37.1778 180.261 36.6828 180.756 36.6828C181.252 36.6828 181.747 37.1778 181.747 37.6727C181.747 38.1677 181.252 38.6627 180.756 38.6627Z" fill="#E69E6C"/>
<path d="M124.881 10.5477C124.287 10.5477 123.891 10.0527 123.891 9.55776C123.891 9.06278 124.386 8.5678 124.881 8.5678C125.377 8.5678 125.872 9.06278 125.872 9.55776C125.872 10.1517 125.476 10.5477 124.881 10.5477ZM121.315 10.6467C120.72 10.6467 120.324 10.1517 120.324 9.65676C120.324 9.16177 120.819 8.66679 121.315 8.66679C121.81 8.66679 122.305 9.16177 122.305 9.65676C122.305 10.1517 121.909 10.6467 121.315 10.6467ZM117.748 10.5477C117.154 10.5477 116.758 10.0527 116.758 9.55776C116.758 9.06278 117.253 8.5678 117.748 8.5678C118.244 8.5678 118.739 9.06278 118.739 9.55776C118.739 10.1517 118.343 10.5477 117.748 10.5477ZM121.315 0.648071C116.262 0.648071 112.101 4.70693 112.101 9.65676C112.101 11.2407 112.498 12.6267 113.191 13.9136C113.389 14.3096 113.29 14.7056 113.092 15.1016C112.696 15.9925 112.894 16.9825 113.587 17.7745C114.479 18.6654 115.569 18.7644 116.559 18.2695C117.055 17.9725 117.352 17.8735 117.847 18.0715C118.937 18.4675 120.027 18.6654 121.216 18.6654C126.268 18.6654 130.429 14.6066 130.429 9.65676C130.429 4.70693 126.466 0.648071 121.315 0.648071Z" fill="#2997CD"/>
<path d="M129.835 64.9958C129.934 65.6888 129.736 66.1838 129.141 66.6788C128.25 67.5698 128.052 68.8567 128.547 70.1437C129.141 71.6286 130.528 72.3216 131.915 72.0246C132.609 71.9256 133.104 71.9256 133.698 72.4206" fill="#1CA783"/>
<path d="M144.002 72.4206C144.596 71.9256 145.091 71.9256 145.785 72.0246C147.271 72.3216 148.559 71.5296 149.153 70.1437C149.649 68.9557 149.451 67.5698 148.559 66.6788C148.064 66.1838 147.766 65.6888 147.865 64.9958" fill="#1CA783"/>
<path d="M139.147 55.6902C140.931 54.4032 143.407 55.2942 143.903 57.4721C144.002 57.7691 144.299 58.0661 144.596 58.0661C146.776 58.1651 148.163 60.541 147.172 62.521C146.974 62.8179 147.073 63.2139 147.37 63.4119C148.955 64.8969 148.559 67.5698 146.479 68.4607C146.181 68.5597 145.983 68.9557 145.983 69.2527C146.28 71.4306 144.2 73.2126 142.119 72.5196C141.822 72.4206 141.426 72.5196 141.228 72.8166C140.039 74.6975 137.364 74.6975 136.175 72.8166C135.977 72.5196 135.68 72.4206 135.284 72.5196C133.203 73.2126 131.123 71.4306 131.42 69.2527C131.42 68.9557 131.321 68.5597 130.925 68.4607C128.844 67.5698 128.448 64.8969 130.033 63.4119C130.33 63.2139 130.33 62.8179 130.231 62.521C129.24 60.541 130.627 58.2641 132.807 58.0661C133.104 58.0661 133.401 57.7691 133.5 57.4721C133.996 55.2942 136.572 54.4032 138.256 55.6902C138.454 55.8882 138.85 55.8882 139.147 55.6902Z" fill="#F5B051"/>
<path d="M134.788 63.7089C134.194 63.7089 133.798 63.2139 133.798 62.719C133.798 62.224 134.293 61.729 134.788 61.729C135.284 61.729 135.779 62.224 135.779 62.719C135.779 63.3129 135.284 63.7089 134.788 63.7089Z" fill="white"/>
<path d="M138.454 62.6198C137.859 62.6198 137.463 62.1248 137.463 61.6299C137.463 61.1349 137.958 60.6399 138.454 60.6399C138.949 60.6399 139.445 61.1349 139.445 61.6299C139.445 62.1248 139.048 62.6198 138.454 62.6198Z" fill="white"/>
<path d="M142.218 63.7089C141.624 63.7089 141.228 63.2139 141.228 62.719C141.228 62.224 141.723 61.729 142.218 61.729C142.714 61.729 143.209 62.224 143.209 62.719C143.209 63.3129 142.714 63.7089 142.218 63.7089Z" fill="white"/>
</g>
<defs>
<clipPath id="clip0">
<rect width="297.902" height="73.6535" fill="white" transform="translate(0.549072 0.549072)"/>
</clipPath>
</defs>
</svg>
