<svg width="99" height="32" viewBox="0 0 99 32" fill="none" xmlns="http://www.w3.org/2000/svg">
<rect width="99" height="32" fill="#6965A9"/>
<path d="M20.2395 14.352C17.6795 13.968 15.1035 12.192 15.1035 10.16V9.344H13.7275V10.16C13.7275 12.208 11.1995 13.952 8.59153 14.352L9.10353 15.424C11.3755 15.024 13.5195 13.776 14.4155 12.016C15.3275 13.76 17.4875 15.024 19.7275 15.424L20.2395 14.352ZM20.9275 17.04H7.91953V18.112H11.2155V23.296H12.5275V18.112H16.3195V23.296H17.6315V18.112H20.9275V17.04ZM34.4303 8.832H33.1183V16.288H34.4303V8.832ZM25.9663 10.832H28.3023V14.56C27.5183 14.608 26.7343 14.64 25.9663 14.656V10.832ZM31.6783 14.288C30.9903 14.352 30.2863 14.432 29.5663 14.48V10.832H30.9743V9.792H23.2783V10.832H24.6863V14.688C24.0623 14.704 23.4543 14.704 22.8943 14.704L23.0223 15.792C25.5503 15.776 28.8943 15.68 31.7423 15.248L31.6783 14.288ZM26.3983 21.984V20.416H34.4303V16.976H25.0543V18H33.1343V19.44H25.1023V23.024H34.9743V21.984H26.3983ZM39.229 15.312H44.397V10.16H37.901V11.232H43.101V14.24H37.949V19.728H39.085C41.821 19.728 43.741 19.616 45.981 19.216L45.837 18.128C43.693 18.544 41.837 18.64 39.229 18.64V15.312ZM50.765 14.528H48.413V8.816H47.101V23.2H48.413V15.632H50.765V14.528ZM58.5718 10.128C60.8278 10.128 62.2518 10.752 62.2518 11.808C62.2518 12.848 60.8278 13.472 58.5718 13.472C56.2838 13.472 54.8598 12.848 54.8598 11.808C54.8598 10.752 56.2838 10.128 58.5718 10.128ZM58.5718 14.48C61.6598 14.48 63.5958 13.504 63.5958 11.808C63.5958 10.096 61.6598 9.104 58.5718 9.104C55.4518 9.104 53.5158 10.096 53.5158 11.808C53.5158 13.504 55.4518 14.48 58.5718 14.48ZM62.1878 21.936H54.9558V19.312H62.1878V21.936ZM65.0518 16.64V15.584H52.0758V16.64H57.9158V18.272H53.6758V22.992H63.4678V18.272H59.2278V16.64H65.0518Z" fill="white"/>
<path d="M75.3147 16.3872C75.396 16.952 75.2131 17.3521 74.7862 17.7756C74.0544 18.4816 73.8715 19.6583 74.2983 20.6702C74.8065 21.8939 75.8635 22.4822 77.0019 22.2704C77.5507 22.1763 77.9572 22.1998 78.4044 22.5999" fill="#2997CD"/>
<path d="M86.7385 22.5999C87.2061 22.1998 87.6126 22.1763 88.1411 22.2704C89.2998 22.4822 90.3366 21.8939 90.8448 20.6702C91.2716 19.6347 91.0887 18.4816 90.3569 17.7756C89.9503 17.3521 89.747 16.952 89.8284 16.3872" fill="#2997CD"/>
<path d="M82.8155 8.52735C84.2181 7.39778 86.2508 8.17436 86.6574 9.98636C86.7184 10.2688 86.942 10.4805 87.2265 10.4805C88.995 10.5747 90.0724 12.5514 89.2593 14.1987C89.1373 14.4575 89.178 14.7635 89.3812 14.9517C90.6822 16.2225 90.296 18.4581 88.6698 19.1641C88.4259 19.2817 88.2632 19.5406 88.3039 19.823C88.5275 21.6585 86.8607 23.1175 85.1735 22.5763C84.9092 22.4822 84.6247 22.5998 84.4824 22.8351C83.527 24.3883 81.352 24.3883 80.3966 22.8351C80.2543 22.5998 79.9697 22.4822 79.7055 22.5763C78.0183 23.1175 76.3515 21.6585 76.5751 19.823C76.6157 19.5406 76.4531 19.2582 76.2092 19.1641C74.583 18.4346 74.1968 16.199 75.4977 14.9517C75.701 14.7635 75.7416 14.434 75.6197 14.1987C74.8066 12.5514 75.9043 10.5747 77.6524 10.4805C77.9167 10.457 78.1606 10.2688 78.2216 9.98636C78.6078 8.17436 80.6608 7.39778 82.0634 8.52735C82.287 8.71561 82.5919 8.71561 82.8155 8.52735Z" fill="#F5B051"/>
<path d="M79.319 15.3047C78.8515 15.3047 78.4856 14.9282 78.4856 14.434C78.4856 13.9869 78.8515 13.6104 79.319 13.6104C79.7256 13.6104 80.0915 13.9869 80.0915 14.434C80.0915 14.9046 79.7459 15.3047 79.319 15.3047Z" fill="white"/>
<path d="M82.287 14.3399C81.8195 14.3399 81.4536 13.9633 81.4536 13.4692C81.4536 13.022 81.8195 12.6455 82.287 12.6455C82.6936 12.6455 83.0595 13.022 83.0595 13.4692C83.0595 13.9633 82.6936 14.3399 82.287 14.3399Z" fill="white"/>
<path d="M85.2548 15.3047C84.7873 15.3047 84.4214 14.9282 84.4214 14.434C84.4214 13.9869 84.7873 13.6104 85.2548 13.6104C85.6614 13.6104 86.0273 13.9869 86.0273 14.434C86.0273 14.9046 85.6614 15.3047 85.2548 15.3047Z" fill="white"/>
<path fill-rule="evenodd" clip-rule="evenodd" d="M79.9675 15.9019C80.1266 15.7736 80.3454 15.819 80.4562 16.0032L80.1682 16.2354C80.4562 16.0032 80.4562 16.0031 80.4562 16.0032L80.4568 16.004L80.4576 16.0054L80.46 16.0095C80.462 16.0129 80.4648 16.0176 80.4682 16.0235C80.4751 16.0353 80.4847 16.0521 80.4968 16.0735C80.5209 16.1164 80.5546 16.1781 80.5952 16.2565C80.6761 16.4131 80.7846 16.6372 80.8969 16.9113C81.1201 17.4556 81.3663 18.2157 81.4324 19.0455C81.4503 19.269 81.3082 19.4669 81.1152 19.4876C80.9221 19.5082 80.7511 19.3437 80.7333 19.1202C80.6775 18.4204 80.4664 17.7568 80.2626 17.2598C80.1616 17.0132 80.0642 16.8123 79.9927 16.674C79.957 16.6049 79.9279 16.5517 79.9082 16.5166C79.8983 16.499 79.8908 16.486 79.886 16.4777L79.8809 16.469L79.8801 16.4677C79.7694 16.2835 79.8085 16.0302 79.9675 15.9019ZM79.8799 16.4674C79.8799 16.4673 79.8799 16.4674 79.8799 16.4674ZM84.5562 15.9019C84.7152 16.0301 84.7544 16.2832 84.6438 16.4673C84.6438 16.4674 84.6438 16.4675 84.6437 16.4675L84.3556 16.2354L84.0675 16.0032C84.1783 15.819 84.3971 15.7736 84.5562 15.9019ZM84.6437 16.4675L84.6429 16.469L84.6377 16.4777C84.6329 16.486 84.6254 16.499 84.6156 16.5166C84.5958 16.5517 84.5667 16.6049 84.531 16.674C84.4595 16.8123 84.3622 17.0132 84.2611 17.2598C84.0573 17.7568 83.8462 18.4204 83.7904 19.1202C83.7726 19.3437 83.6016 19.5082 83.4086 19.4876C83.2155 19.4669 83.0735 19.269 83.0913 19.0455C83.1574 18.2157 83.4037 17.4556 83.6268 16.9113C83.7391 16.6372 83.8476 16.4131 83.9286 16.2565C83.9691 16.1781 84.0029 16.1164 84.0269 16.0735C84.039 16.0521 84.0486 16.0353 84.0555 16.0235C84.059 16.0176 84.0617 16.0129 84.0637 16.0095L84.0662 16.0054L84.067 16.004L84.0675 16.0032C84.0675 16.0031 84.0675 16.0032 84.3556 16.2354" fill="white"/>
</svg>
