<?xml version="1.0" encoding="utf-8"?>
<!-- Generator: Adobe Illustrator 25.0.0, SVG Export Plug-In . SVG Version: 6.00 Build 0)  -->
<svg version="1.1" id="레이어_1" xmlns="http://www.w3.org/2000/svg" xmlns:xlink="http://www.w3.org/1999/xlink" x="0px"
	 y="0px" viewBox="0 0 105 105" style="enable-background:new 0 0 105 105;" xml:space="preserve">
<style type="text/css">
	.st0{fill:#F5B051;}
	.st1{fill:#2997CD;}
	.st2{fill:#1CA783;}
	.st3{fill:#0063A6;}
	.st4{fill:#FFFFFF;}
	.st5{fill-rule:evenodd;clip-rule:evenodd;fill:#FFFFFF;}
</style>
<g>
	<path class="st0" d="M52.5,0H0v52.5h52.5V0z"/>
	<path class="st1" d="M105,0H52.5v52.5H105V0z"/>
	<path class="st2" d="M52.5,52.5H0V105h52.5V52.5z"/>
	<path class="st3" d="M52.5,52.5V105h28.1L66.8,85.1L105,65.1V52.5H52.5z"/>
	<path class="st1" d="M80.6,105L105,65.1L66.8,85.1L80.6,105z"/>
	<path class="st0" d="M26.5,94C35.1,94,42,87.3,42,79s-6.9-15-15.5-15S11,70.7,11,79S17.9,94,26.5,94z"/>
	<path class="st4" d="M32.6,80.6c-1,0-1.7-0.8-1.7-1.7c0-0.9,0.8-1.6,1.7-1.6c0.9,0,1.6,0.8,1.6,1.6C34.2,79.9,33.4,80.6,32.6,80.6z
		 M26.6,80.7c-1,0-1.7-0.8-1.7-1.7c0-0.9,0.8-1.6,1.7-1.6c0.9,0,1.6,0.8,1.6,1.6C28.2,80,27.4,80.7,26.6,80.7z M20.6,80.6
		c-1,0-1.7-0.8-1.7-1.7c0-0.9,0.8-1.6,1.7-1.6c0.9,0,1.6,0.8,1.6,1.6C22.2,79.9,21.4,80.6,20.6,80.6z"/>
	<path class="st0" d="M12.7,85.8c0.5,0.8,0.4,1.5,0,2.3c-0.7,1.4-0.4,3.2,0.9,4.5c1.4,1.5,3.4,1.7,5,0.8c0.8-0.5,1.4-0.7,2.3-0.3"/>
	<path class="st4" d="M84.5,28.7c-1,0-1.7-0.8-1.7-1.7c0-0.9,0.8-1.6,1.7-1.6c0.9,0,1.6,0.8,1.6,1.6C86.1,28,85.4,28.7,84.5,28.7z
		 M78.5,31.1c-1,0-1.7-0.8-1.7-1.7c0-0.9,0.8-1.6,1.7-1.6c0.9,0,1.6,0.8,1.6,1.6C80.1,30.3,79.4,31.1,78.5,31.1z M72.5,28.7
		c-1,0-1.7-0.8-1.7-1.7c0-0.9,0.8-1.6,1.7-1.6c0.9,0,1.6,0.8,1.6,1.6C74.1,28,73.4,28.7,72.5,28.7z M94.5,23.2
		c-0.9-0.3-1.4-0.8-1.6-1.6C91.3,15.3,85.3,11,78.5,11s-12.8,4.3-14.4,10.5c-0.2,0.9-0.8,1.3-1.6,1.6C61,23.7,60,25.2,60,27
		c0,2.1,1.2,3.6,3.1,4c0.9,0.2,1.4,0.5,1.8,1.4c2.5,5,7.5,8.6,13.7,8.6c6,0,11.1-3.6,13.6-8.6c0.4-0.9,0.9-1.1,1.7-1.4
		c1.7-0.6,3.1-2,3.1-4C97,25.2,96,23.7,94.5,23.2z"/>
	<path class="st4" d="M10.7,27.8c0.2,1.1-0.2,1.9-1.2,2.8c-1.6,1.4-2,3.8-1.1,5.8c1.1,2.4,3.4,3.6,5.9,3.2c1.2-0.2,2.1-0.1,3.1,0.7"
		/>
	<path class="st4" d="M35.6,40.2c1-0.8,1.9-0.8,3.1-0.7c2.5,0.4,4.8-0.8,5.9-3.2c0.9-2.1,0.5-4.4-1.1-5.8c-0.9-0.8-1.3-1.6-1.2-2.8"
		/>
	<path class="st1" d="M27,12.1c3.1-2.3,7.5-0.7,8.4,2.9c0.1,0.6,0.6,1,1.2,1c3.8,0.2,6.2,4.1,4.4,7.4c-0.3,0.5-0.2,1.1,0.3,1.5
		c2.8,2.5,2,7-1.5,8.4c-0.5,0.2-0.9,0.8-0.8,1.3c0.5,3.7-3.1,6.6-6.8,5.5c-0.6-0.2-1.2,0-1.5,0.5c-2.1,3.1-6.8,3.1-8.9,0
		c-0.3-0.5-0.9-0.7-1.5-0.5c-3.7,1.1-7.3-1.8-6.8-5.5c0.1-0.6-0.3-1.1-0.8-1.3c-3.5-1.5-4.4-5.9-1.5-8.4c0.4-0.4,0.5-1,0.3-1.5
		c-1.8-3.3,0.6-7.2,4.4-7.4c0.6,0,1.1-0.4,1.2-1c0.8-3.6,5.3-5.2,8.4-2.9C25.9,12.4,26.5,12.4,27,12.1z"/>
	<path class="st4" d="M19.4,25.6c-1,0-1.8-0.8-1.8-1.7c0-0.9,0.8-1.6,1.8-1.6c0.9,0,1.7,0.8,1.7,1.6C21.1,24.8,20.4,25.6,19.4,25.6z
		"/>
	<path class="st4" d="M25.9,23.7c-1,0-1.8-0.8-1.8-1.7c0-0.9,0.8-1.6,1.8-1.6c0.9,0,1.7,0.8,1.7,1.6C27.6,22.9,26.8,23.7,25.9,23.7z
		"/>
	<path class="st4" d="M32.3,25.6c-1,0-1.8-0.8-1.8-1.7c0-0.9,0.8-1.6,1.8-1.6c0.9,0,1.7,0.8,1.7,1.6C34,24.8,33.2,25.6,32.3,25.6z"
		/>
	<path class="st5" d="M20.8,26.8c0.3-0.3,0.8-0.2,1.1,0.2l-0.6,0.5c0.6-0.5,0.6-0.5,0.6-0.5l0,0l0,0l0,0c0,0,0,0,0,0
		c0,0,0,0.1,0.1,0.1c0.1,0.1,0.1,0.2,0.2,0.4c0.2,0.3,0.4,0.8,0.7,1.3c0.5,1.1,1,2.6,1.2,4.3c0,0.4-0.3,0.8-0.7,0.9
		c-0.4,0-0.8-0.3-0.8-0.7c-0.1-1.4-0.6-2.7-1-3.7c-0.2-0.5-0.4-0.9-0.6-1.2c-0.1-0.1-0.1-0.2-0.2-0.3c0,0,0-0.1,0-0.1l0,0l0,0
		C20.4,27.6,20.5,27.1,20.8,26.8z M20.6,27.9C20.6,27.9,20.6,27.9,20.6,27.9z M30.8,26.8c0.3,0.3,0.4,0.8,0.2,1.1c0,0,0,0,0,0
		l-0.6-0.5L29.8,27C30,26.6,30.5,26.5,30.8,26.8z M31,27.9L31,27.9L31,27.9C31,28,31,28,31,27.9c-0.1,0.2-0.2,0.3-0.2,0.4
		c-0.2,0.3-0.4,0.7-0.6,1.2c-0.4,1-0.9,2.3-1,3.7c0,0.4-0.4,0.8-0.8,0.7c-0.4,0-0.7-0.4-0.7-0.9c0.1-1.7,0.7-3.2,1.2-4.3
		c0.2-0.5,0.5-1,0.7-1.3c0.1-0.2,0.2-0.3,0.2-0.4c0,0,0-0.1,0.1-0.1c0,0,0,0,0,0l0,0l0,0l0,0c0,0,0,0,0.6,0.5"/>
</g>
</svg>
