<?xml version="1.0" encoding="utf-8"?>
<!-- Generator: Adobe Illustrator 25.0.0, SVG Export Plug-In . SVG Version: 6.00 Build 0)  -->
<svg version="1.1" id="레이어_1" xmlns="http://www.w3.org/2000/svg" xmlns:xlink="http://www.w3.org/1999/xlink" x="0px"
	 y="0px" viewBox="0 0 70 32" style="enable-background:new 0 0 70 32;" xml:space="preserve">
<style type="text/css">
	.st0{fill:#1CA783;}
	.st1{fill:#FFFFFF;}
	.st2{fill:#2997CD;}
	.st3{fill:#F5B051;}
	.st4{fill-rule:evenodd;clip-rule:evenodd;fill:#FFFFFF;}
</style>
<rect y="0" class="st0" width="70" height="32"/>
<path class="st1" d="M15.5,15.7v0.9h2.8v0.8h1.3V8.8h-1.3v6.8L15.5,15.7L15.5,15.7z M12.5,10c1.4,0,2.3,0.5,2.3,1.2
	s-0.9,1.2-2.3,1.2s-2.3-0.5-2.3-1.2S11.1,10,12.5,10z M12.5,13.4c2.1,0,3.5-0.8,3.5-2.1s-1.4-2.2-3.5-2.2S9,9.9,9,11.3
	C9,12.6,10.4,13.4,12.5,13.4z M11.8,17.3h1.3v-2.2c1.4-0.1,2.8-0.2,4.2-0.4l-0.1-0.9c-3.1,0.4-6.6,0.4-9.3,0.4l0.2,1
	c1.2,0,2.4,0,3.7,0C11.8,15.2,11.8,17.3,11.8,17.3z M11.4,22v-1.2h8.3v-3H10v0.9h8.3v1.2H10V23h10.1v-1H11.4z M23.8,15.6
	c2.4-0.3,4.4-1.2,5.3-2.7c0.9,1.5,2.9,2.4,5.3,2.7l0.4-1c-2.7-0.3-4.9-1.5-5-3.1h4.4v-1h-4.5V8.8h-1.3v1.6H24v1h4.4
	c-0.1,1.7-2.3,2.8-5,3.1L23.8,15.6z M25.6,18.9h-1.3v3.9h9.9v-1.1h-8.6V18.9z M29.8,16.8v-1.9h-1.3v1.9h-5.9v1.1h13v-1.1H29.8z"/>
<path class="st2" d="M46.3,16.4c0.1,0.6-0.1,1-0.5,1.4c-0.7,0.7-0.9,1.9-0.5,2.9c0.5,1.2,1.6,1.8,2.7,1.6c0.5-0.1,1-0.1,1.4,0.3"/>
<path class="st2" d="M57.7,22.6c0.5-0.4,0.9-0.4,1.4-0.3c1.2,0.2,2.2-0.4,2.7-1.6c0.4-1,0.2-2.2-0.5-2.9c-0.4-0.4-0.6-0.8-0.5-1.4"
	/>
<path class="st3" d="M53.8,8.5c1.4-1.1,3.4-0.4,3.8,1.5c0.1,0.3,0.3,0.5,0.6,0.5c1.8,0.1,2.8,2.1,2,3.7c-0.1,0.3-0.1,0.6,0.1,0.8
	c1.3,1.3,0.9,3.5-0.7,4.2c-0.2,0.1-0.4,0.4-0.4,0.7c0.2,1.8-1.4,3.3-3.1,2.8c-0.3-0.1-0.5,0-0.7,0.3c-1,1.6-3.1,1.6-4.1,0
	c-0.1-0.2-0.4-0.4-0.7-0.3c-1.7,0.5-3.4-0.9-3.1-2.8c0-0.3-0.1-0.6-0.4-0.7c-1.6-0.7-2-3-0.7-4.2c0.2-0.2,0.2-0.5,0.1-0.8
	c-0.8-1.6,0.3-3.6,2-3.7c0.3,0,0.5-0.2,0.6-0.5c0.4-1.8,2.4-2.6,3.8-1.5C53.3,8.7,53.6,8.7,53.8,8.5z"/>
<path class="st1" d="M50.3,15.3c-0.5,0-0.8-0.4-0.8-0.9c0-0.4,0.4-0.8,0.8-0.8c0.4,0,0.8,0.4,0.8,0.8C51.1,14.9,50.7,15.3,50.3,15.3
	z"/>
<path class="st1" d="M53.3,14.3c-0.5,0-0.8-0.4-0.8-0.9c0-0.4,0.4-0.8,0.8-0.8c0.4,0,0.8,0.4,0.8,0.8C54.1,14,53.7,14.3,53.3,14.3z"
	/>
<path class="st1" d="M56.3,15.3c-0.5,0-0.8-0.4-0.8-0.9c0-0.4,0.4-0.8,0.8-0.8c0.4,0,0.8,0.4,0.8,0.8C57,14.9,56.7,15.3,56.3,15.3z"
	/>
<path class="st4" d="M51,15.9c0.2-0.1,0.4-0.1,0.5,0.1l-0.3,0.2c0.3-0.2,0.3-0.2,0.3-0.2l0,0l0,0l0,0l0,0l0,0c0,0,0.1,0.1,0.1,0.2
	c0.1,0.2,0.2,0.4,0.3,0.7c0.2,0.5,0.5,1.3,0.5,2.1c0,0.2-0.1,0.4-0.3,0.4s-0.4-0.1-0.4-0.4c-0.1-0.7-0.3-1.4-0.5-1.9
	c-0.1-0.2-0.2-0.4-0.3-0.6c0-0.1-0.1-0.1-0.1-0.2l0,0l0,0l0,0C50.8,16.3,50.8,16,51,15.9z M50.9,16.5L50.9,16.5z M55.6,15.9
	c0.2,0.1,0.2,0.4,0.1,0.6l0,0l-0.3-0.2L55.1,16C55.2,15.8,55.4,15.8,55.6,15.9z M55.6,16.5L55.6,16.5L55.6,16.5L55.6,16.5
	c0,0.1-0.1,0.1-0.1,0.2c-0.1,0.1-0.2,0.3-0.3,0.6c-0.2,0.5-0.4,1.2-0.5,1.9c0,0.2-0.2,0.4-0.4,0.4S54,19.4,54,19.2
	c0.1-0.8,0.3-1.6,0.5-2.1c0.1-0.3,0.2-0.5,0.3-0.7c0-0.1,0.1-0.1,0.1-0.2l0,0l0,0l0,0l0,0l0,0c0,0,0,0,0.3,0.2"/>
</svg>
